<?xml version="1.0" encoding="UTF-8" standalone="no"?><!DOCTYPE svg PUBLIC "-//W3C//DTD SVG 1.1//EN" "http://www.w3.org/Graphics/SVG/1.1/DTD/svg11.dtd"><svg width="100%" height="100%" viewBox="0 0 5429 5065" version="1.1" xmlns="http://www.w3.org/2000/svg" xmlns:xlink="http://www.w3.org/1999/xlink" xml:space="preserve" xmlns:serif="http://www.serif.com/" style="fill-rule:evenodd;clip-rule:evenodd;stroke-linejoin:round;stroke-miterlimit:2;"><g><g><g><g><path d="M1185.16,1360.27c45.599,-0 89.33,-18.114 121.574,-50.358c32.243,-32.243 50.357,-75.975 50.357,-121.574l0,-982.812c0,-113.51 92.019,-205.528 205.529,-205.528c756.324,0 2903.9,0 3660.23,0c54.509,-0 106.786,21.654 145.33,60.198c38.544,38.544 60.198,90.821 60.198,145.331c0,240.564 0,704.857 0,945.422c0,54.509 -21.654,106.786 -60.198,145.33c-38.544,38.545 -90.821,60.198 -145.331,60.198c-274.396,0 -671.639,0 -946.036,0c-54.51,0 -106.787,21.654 -145.331,60.198c-38.544,38.544 -60.198,90.821 -60.198,145.331c-0,527.952 -0,873.985 -0,1039.09c-0,62.459 -50.633,113.092 -113.091,113.092c-255.584,-0 -875.328,-0 -1130.91,-0c-29.994,-0 -58.759,-11.915 -79.968,-33.124c-21.208,-21.209 -33.123,-49.974 -33.123,-79.968c-0,-164.861 -0,-510.299 -0,-1038.47c-0,-54.616 -21.739,-106.986 -60.415,-145.547c-38.677,-38.562 -91.112,-60.144 -145.728,-59.981c-359.911,1.074 -979.02,3.178 -979.02,3.178c-45.599,-0 -89.331,18.114 -121.574,50.358c-32.244,32.243 -50.358,75.975 -50.358,121.574c0,294.209 0,834.742 0,1068.89c0,29.994 -11.915,58.759 -33.123,79.968c-21.209,21.209 -49.974,33.124 -79.968,33.124c-255.584,-0 -875.328,-0 -1130.91,-0c-62.458,-0 -113.091,-50.633 -113.091,-113.092c0,-164.411 0,-508.536 0,-1035.3c-0,-113.511 92.018,-205.529 205.528,-205.529c359.723,-0 979.635,-0 979.635,-0Z" style="fill:#0046bf;"/><path d="M2548.17,4119.86c-0,-81.06 -65.712,-146.773 -146.773,-146.773c-301.245,0 -961.295,0 -961.295,0l0,0.008c0,162.133 131.434,293.567 293.567,293.567c215.188,-0 498.244,-0 667.728,-0c81.061,-0 146.773,-65.713 146.773,-146.773c-0,-0.01 -0,-0.019 -0,-0.029Zm2326.19,146.802c81.06,-0 146.773,-65.713 146.773,-146.773c-0,-73.398 -0,-146.802 -0,-146.802l-293.575,0l0,146.802c0,81.06 65.713,146.773 146.773,146.773l0.029,-0Zm-4727.56,-0c81.06,-0 146.772,-65.713 146.773,-146.773l-0,-146.802l-293.575,0l0,146.802c0,81.06 65.712,146.773 146.773,146.773l0.029,-0Zm3841.47,-293.575l-961.295,0c-81.06,0 -146.773,65.713 -146.773,146.773c0,0.01 0,0.019 0,0.029c0,81.06 65.713,146.773 146.773,146.773c169.484,-0 452.541,-0 667.729,-0c162.132,-0 293.566,-131.434 293.566,-293.567c0,-0.005 0,-0.008 0,-0.008Zm0,-223.884c0,-162.132 -131.434,-293.566 -293.566,-293.566c-328.277,-0 -814.502,-0 -814.502,-0l0,0.008c0,162.132 131.435,293.566 293.567,293.566c328.276,0 814.501,0 814.501,0l0,-0.008Zm-1440.1,-146.794c-0,-81.06 -65.712,-146.772 -146.773,-146.772c-301.245,-0 -961.295,-0 -961.295,-0l0,293.574l961.295,0c81.061,0 146.773,-65.712 146.773,-146.772c-0,-0.01 -0,-0.02 -0,-0.03Zm-1440.1,0c-0,-81.06 -65.713,-146.772 -146.773,-146.772c-301.246,-0 -961.295,-0 -961.295,-0l0,293.574l961.295,0c81.06,0 146.773,-65.712 146.773,-146.772c-0,-0.01 -0,-0.02 -0,-0.03Zm3913.06,146.802l-0,-293.574l-293.575,-0l0,293.574l293.575,0Zm-3913.06,-664.252c-0,-81.06 -65.713,-146.772 -146.773,-146.773c-169.484,0 -452.541,0 -667.729,0c-162.132,0 -293.566,131.435 -293.566,293.567c0,0.005 0,0.008 0,0.008l961.295,-0c81.06,-0 146.773,-65.712 146.773,-146.773c-0,-0.009 -0,-0.019 -0,-0.029Zm1440.1,-0c-0,-81.06 -65.712,-146.772 -146.773,-146.773c-169.484,0 -452.54,0 -667.728,0c-162.133,0 -293.567,131.435 -293.567,293.567c0,0.005 0,0.008 0,0.008l961.295,-0c81.061,-0 146.773,-65.712 146.773,-146.773c-0,-0.009 -0,-0.019 -0,-0.029Zm1440.1,-0c0,-81.06 -65.712,-146.772 -146.772,-146.773c-169.485,0 -452.541,0 -667.729,0c-162.132,0 -293.567,131.435 -293.567,293.567c0,0.005 0,0.008 0,0.008l961.296,-0c81.06,-0 146.772,-65.712 146.772,-146.773c0,-0.009 0,-0.019 0,-0.029Zm1440.1,-0c0,-81.06 -65.712,-146.772 -146.772,-146.773c-212.176,0 -602.347,0 -814.523,0c-81.06,0.001 -146.772,65.713 -146.772,146.773c-0,0.01 -0,0.02 -0,0.029c-0,81.061 65.712,146.773 146.772,146.773c212.176,-0 602.347,-0 814.523,-0c81.06,-0 146.772,-65.712 146.772,-146.773c0,-0.009 0,-0.019 0,-0.029Z" style="fill:#00a9ff;"/></g><g><path d="M0,4559.12l243.443,0c55.039,0 103.61,9.997 145.713,29.99c42.103,19.993 74.797,48.571 98.083,85.734c23.286,37.163 34.929,80.912 34.929,131.247c-0,50.336 -11.643,94.085 -34.929,131.248c-23.286,37.163 -55.98,65.741 -98.083,85.734c-42.103,19.993 -90.674,29.99 -145.713,29.99l-243.443,-0l0,-493.943Zm236.387,364.106c35.752,0 64.33,-10.231 85.734,-30.695c21.404,-20.463 32.106,-49.276 32.106,-86.44c0,-37.163 -10.702,-65.976 -32.106,-86.439c-21.404,-20.464 -49.982,-30.695 -85.734,-30.695l-69.858,-0l0,234.269l69.858,0Z" style="fill:#0046bf;fill-rule:nonzero;"/><path d="M697.164,5064.35c-38.574,-0 -73.503,-6.233 -104.786,-18.7c-31.283,-12.466 -57.039,-30.695 -77.267,-54.686l89.616,-105.845c13.171,16.465 26.108,28.696 38.809,36.693c12.702,7.997 25.873,11.996 39.516,11.996c17.405,-0 30.695,-5.175 39.868,-15.524c9.173,-10.349 13.76,-25.638 13.76,-45.866l-0,-187.698l-167.941,-0l0,-125.603l332.353,0l-0,303.422c-0,67.27 -17.288,117.723 -51.864,151.358c-34.576,33.635 -85.264,50.453 -152.064,50.453Z" style="fill:#0046bf;fill-rule:nonzero;"/><path d="M1215.1,4559.12c45.631,0 85.382,7.527 119.252,22.581c33.87,15.053 59.979,36.692 78.325,64.918c18.346,28.225 27.52,61.154 27.52,98.788c-0,37.634 -9.174,70.563 -27.52,98.789c-18.346,28.225 -44.455,49.864 -78.325,64.918c-33.87,15.053 -73.621,22.58 -119.252,22.58l-71.269,-0l0,121.369l-166.529,-0l0,-493.943l237.798,0Zm-10.584,244.149c22.58,-0 39.515,-5.057 50.805,-15.171c11.29,-10.114 16.935,-24.344 16.935,-42.691c0,-18.346 -5.645,-32.577 -16.935,-42.691c-11.29,-10.114 -28.225,-15.171 -50.805,-15.171l-60.685,0l0,115.724l60.685,-0Z" style="fill:#0046bf;fill-rule:nonzero;"/><path d="M1754.2,4660.03c33.87,-0 65.036,8.114 93.496,24.344c28.461,16.229 51.041,39.515 67.741,69.858c16.7,30.342 25.05,65.506 25.05,105.491c-0,39.986 -8.35,75.268 -25.05,105.845c-16.7,30.578 -39.28,53.981 -67.741,70.211c-28.46,16.229 -59.626,24.344 -93.496,24.344c-47.513,-0 -82.794,-12.937 -105.845,-38.81l0,31.754l-151.711,-0l0,-523.579l159.473,-0l0,163.706c22.58,-22.109 55.275,-33.164 98.083,-33.164Zm-38.104,275.902c18.346,-0 33.4,-6.704 45.16,-20.111c11.761,-13.407 17.641,-32.106 17.641,-56.098c0,-23.991 -5.88,-42.573 -17.641,-55.744c-11.76,-13.172 -26.814,-19.758 -45.16,-19.758c-18.347,-0 -33.4,6.586 -45.161,19.758c-11.76,13.171 -17.64,31.753 -17.64,55.744c-0,23.992 5.88,42.691 17.64,56.098c11.761,13.407 26.814,20.111 45.161,20.111Z" style="fill:#0046bf;fill-rule:nonzero;"/></g></g><path d="M3141.39,4867.44l0,116.497c0,48.347 -24.688,72.521 -74.064,72.521c-13.201,-0 -25.716,-1.672 -37.546,-5.015c-11.83,-3.343 -21.602,-8.187 -29.317,-14.53l14.401,-24.174c6.001,4.972 13.587,8.958 22.76,11.958c9.172,3.001 18.473,4.501 27.902,4.501c15.087,-0 26.145,-3.429 33.175,-10.287c7.029,-6.858 10.543,-17.316 10.543,-31.374l0,-7.201c-5.486,6.001 -12.172,10.544 -20.059,13.63c-7.886,3.086 -16.544,4.629 -25.973,4.629c-13.03,0 -24.817,-2.786 -35.361,-8.358c-10.544,-5.572 -18.859,-13.415 -24.945,-23.531c-6.086,-10.115 -9.129,-21.687 -9.129,-34.717c-0,-13.03 3.043,-24.56 9.129,-34.589c6.086,-10.03 14.401,-17.787 24.945,-23.274c10.544,-5.486 22.331,-8.229 35.361,-8.229c9.943,0 18.987,1.629 27.131,4.886c8.143,3.258 14.958,8.23 20.444,14.916l0,-18.259l30.603,0Zm2286.98,0l-64.291,148.385c-6.001,14.916 -13.287,25.417 -21.86,31.503c-8.572,6.086 -18.944,9.13 -31.117,9.13c-6.858,-0 -13.63,-1.115 -20.316,-3.344c-6.686,-2.228 -12.172,-5.314 -16.459,-9.258l12.859,-23.659c3.086,2.915 6.729,5.229 10.929,6.944c4.201,1.714 8.444,2.571 12.73,2.571c5.658,0 10.33,-1.457 14.016,-4.372c3.686,-2.914 7.072,-7.8 10.158,-14.658l2.314,-5.401l-59.92,-137.841l33.432,0l43.204,101.581l43.461,-101.581l30.86,0Zm-1938.78,139.899c-13.887,-0 -27.303,-1.972 -40.247,-5.915c-12.944,-3.943 -23.188,-9.172 -30.731,-15.687l11.572,-25.974c7.373,5.829 16.416,10.587 27.131,14.273c10.716,3.686 21.474,5.529 32.275,5.529c13.373,-0 23.359,-2.143 29.96,-6.429c6.6,-4.287 9.901,-9.944 9.901,-16.973c-0,-5.144 -1.843,-9.387 -5.529,-12.73c-3.686,-3.343 -8.358,-5.958 -14.016,-7.844c-5.658,-1.886 -13.373,-4.029 -23.145,-6.429c-13.715,-3.257 -24.817,-6.515 -33.303,-9.772c-8.487,-3.258 -15.773,-8.358 -21.859,-15.302c-6.086,-6.943 -9.13,-16.33 -9.13,-28.159c0,-9.944 2.701,-18.988 8.101,-27.132c5.401,-8.143 13.544,-14.615 24.431,-19.416c10.887,-4.8 24.217,-7.2 39.989,-7.2c10.973,-0 21.774,1.371 32.403,4.114c10.63,2.744 19.802,6.687 27.517,11.83l-10.544,25.974c-7.886,-4.629 -16.115,-8.144 -24.688,-10.544c-8.572,-2.4 -16.887,-3.6 -24.945,-3.6c-13.201,-0 -23.016,2.229 -29.445,6.686c-6.43,4.458 -9.644,10.372 -9.644,17.745c-0,5.143 1.843,9.343 5.529,12.601c3.686,3.257 8.358,5.829 14.016,7.715c5.657,1.886 13.372,4.029 23.145,6.429c13.372,3.086 24.345,6.3 32.917,9.644c8.572,3.343 15.901,8.443 21.988,15.301c6.086,6.858 9.129,16.116 9.129,27.774c0,9.944 -2.7,18.945 -8.101,27.003c-5.4,8.057 -13.587,14.487 -24.559,19.287c-10.973,4.801 -24.345,7.201 -40.118,7.201Zm724.181,-10.03c-3.772,3.086 -8.358,5.401 -13.758,6.944c-5.401,1.543 -11.101,2.314 -17.102,2.314c-15.087,0 -26.745,-3.943 -34.974,-11.829c-8.23,-7.887 -12.344,-19.374 -12.344,-34.461l-0,-66.092l-22.631,0l-0,-25.716l22.631,-0l-0,-31.375l32.145,0l0,31.375l36.775,-0l0,25.716l-36.775,0l0,65.321c0,6.686 1.629,11.787 4.887,15.301c3.257,3.515 7.972,5.272 14.144,5.272c7.2,0 13.201,-1.886 18.001,-5.658l9.001,22.888Zm483.473,-60.434c0,2.229 -0.171,5.401 -0.514,9.515l-107.753,0c1.886,10.115 6.815,18.13 14.787,24.045c7.973,5.915 17.873,8.873 29.703,8.873c15.087,-0 27.517,-4.972 37.289,-14.916l17.23,19.802c-6.172,7.372 -13.972,12.944 -23.402,16.716c-9.429,3.771 -20.059,5.657 -31.888,5.657c-15.087,0 -28.374,-3 -39.861,-9.001c-11.487,-6 -20.359,-14.358 -26.617,-25.073c-6.258,-10.716 -9.387,-22.845 -9.387,-36.389c0,-13.373 3.044,-25.417 9.13,-36.132c6.086,-10.716 14.53,-19.074 25.331,-25.074c10.801,-6.001 22.973,-9.001 36.517,-9.001c13.373,0 25.331,2.957 35.875,8.872c10.544,5.915 18.773,14.23 24.688,24.945c5.915,10.716 8.872,23.103 8.872,37.161Zm225.536,69.692c-11.144,0 -22.031,-1.457 -32.661,-4.372c-10.629,-2.914 -19.116,-6.6 -25.459,-11.058l12.344,-24.431c6.172,4.115 13.587,7.415 22.245,9.901c8.658,2.486 17.187,3.729 25.588,3.729c19.202,0 28.803,-5.057 28.803,-15.173c-0,-4.8 -2.443,-8.143 -7.33,-10.029c-4.886,-1.886 -12.729,-3.686 -23.53,-5.401c-11.316,-1.714 -20.531,-3.686 -27.646,-5.914c-7.115,-2.229 -13.287,-6.13 -18.516,-11.702c-5.229,-5.571 -7.843,-13.329 -7.843,-23.273c-0,-13.03 5.443,-23.445 16.33,-31.246c10.886,-7.801 25.588,-11.701 44.104,-11.701c9.429,0 18.859,1.072 28.288,3.215c9.43,2.143 17.145,5.014 23.145,8.615l-12.344,24.431c-11.658,-6.858 -24.774,-10.287 -39.346,-10.287c-9.43,-0 -16.588,1.414 -21.474,4.243c-4.886,2.829 -7.329,6.558 -7.329,11.187c-0,5.143 2.614,8.786 7.844,10.929c5.229,2.144 13.329,4.158 24.302,6.044c10.972,1.714 19.973,3.686 27.002,5.915c7.03,2.229 13.073,6 18.131,11.315c5.057,5.315 7.586,12.858 7.586,22.631c-0,12.858 -5.572,23.145 -16.716,30.86c-11.144,7.715 -26.317,11.572 -45.518,11.572Zm-2196.97,0c-13.887,0 -26.402,-3 -37.546,-9.001c-11.144,-6 -19.845,-14.358 -26.103,-25.073c-6.258,-10.716 -9.386,-22.845 -9.386,-36.389c-0,-13.545 3.128,-25.631 9.386,-36.261c6.258,-10.629 14.959,-18.945 26.103,-24.945c11.144,-6.001 23.659,-9.001 37.546,-9.001c14.058,0 26.66,3 37.803,9.001c11.144,6 19.845,14.316 26.103,24.945c6.258,10.63 9.386,22.716 9.386,36.261c0,13.544 -3.128,25.673 -9.386,36.389c-6.258,10.715 -14.959,19.073 -26.103,25.073c-11.143,6.001 -23.745,9.001 -37.803,9.001Zm2050.9,-140.67c20.23,0 35.703,4.843 46.419,14.53c10.715,9.687 16.072,24.302 16.072,43.847l0,80.493l-30.345,0l-0,-16.716c-3.943,6.001 -9.558,10.587 -16.845,13.759c-7.286,3.171 -16.073,4.757 -26.359,4.757c-10.287,0 -19.288,-1.757 -27.003,-5.272c-7.715,-3.514 -13.672,-8.4 -17.873,-14.658c-4.2,-6.258 -6.3,-13.33 -6.3,-21.216c-0,-12.344 4.586,-22.245 13.758,-29.703c9.172,-7.458 23.617,-11.187 43.333,-11.187l35.489,0l-0,-2.057c-0,-9.601 -2.872,-16.973 -8.615,-22.117c-5.744,-5.143 -14.273,-7.715 -25.589,-7.715c-7.715,0 -15.301,1.201 -22.759,3.601c-7.458,2.4 -13.758,5.743 -18.902,10.029l-12.601,-23.402c7.201,-5.486 15.859,-9.687 25.974,-12.601c10.115,-2.915 20.831,-4.372 32.146,-4.372Zm-1813.8,1.543l-0,137.327l-30.603,0l-0,-17.487c-5.144,6.172 -11.573,10.929 -19.288,14.272c-7.715,3.344 -16.03,5.015 -24.945,5.015c-18.344,0 -32.789,-5.1 -43.332,-15.301c-10.544,-10.201 -15.816,-25.331 -15.816,-45.39l-0,-78.436l32.146,0l-0,74.064c-0,12.344 2.786,21.559 8.358,27.645c5.571,6.087 13.501,9.13 23.787,9.13c11.487,-0 20.617,-3.558 27.389,-10.673c6.772,-7.114 10.158,-17.358 10.158,-30.731l-0,-69.435l32.146,0Zm952.802,-1.543c20.23,0 35.703,4.843 46.419,14.53c10.715,9.687 16.073,24.302 16.073,43.847l-0,80.493l-30.346,0l-0,-16.716c-3.943,6.001 -9.558,10.587 -16.845,13.759c-7.286,3.171 -16.072,4.757 -26.359,4.757c-10.287,0 -19.288,-1.757 -27.003,-5.272c-7.715,-3.514 -13.672,-8.4 -17.873,-14.658c-4.2,-6.258 -6.3,-13.33 -6.3,-21.216c-0,-12.344 4.586,-22.245 13.758,-29.703c9.172,-7.458 23.617,-11.187 43.333,-11.187l35.489,0l-0,-2.057c-0,-9.601 -2.872,-16.973 -8.615,-22.117c-5.744,-5.143 -14.273,-7.715 -25.588,-7.715c-7.715,0 -15.302,1.201 -22.76,3.601c-7.458,2.4 -13.758,5.743 -18.901,10.029l-12.602,-23.402c7.201,-5.486 15.859,-9.687 25.974,-12.601c10.115,-2.915 20.831,-4.372 32.146,-4.372Zm1230.03,1.543l0,137.327l-30.603,0l0,-17.487c-5.143,6.172 -11.572,10.929 -19.287,14.272c-7.715,3.344 -16.03,5.015 -24.945,5.015c-18.345,0 -32.789,-5.1 -43.333,-15.301c-10.544,-10.201 -15.816,-25.331 -15.816,-45.39l0,-78.436l32.146,0l0,74.064c0,12.344 2.786,21.559 8.358,27.645c5.572,6.087 13.501,9.13 23.788,9.13c11.487,-0 20.616,-3.558 27.388,-10.673c6.772,-7.114 10.158,-17.358 10.158,-30.731l0,-69.435l32.146,0Zm72.778,20.059c9.258,-14.401 25.545,-21.602 48.862,-21.602l-0,30.603c-2.743,-0.514 -5.229,-0.772 -7.458,-0.772c-12.515,0 -22.288,3.644 -29.317,10.93c-7.029,7.286 -10.544,17.787 -10.544,31.503l0,66.606l-32.146,0l0,-137.327l30.603,0l0,20.059Zm-725.21,0c9.258,-14.401 25.546,-21.602 48.862,-21.602l-0,30.603c-2.743,-0.514 -5.229,-0.772 -7.458,-0.772c-12.515,0 -22.288,3.644 -29.317,10.93c-7.029,7.286 -10.544,17.787 -10.544,31.503l0,66.606l-32.146,0l0,-137.327l30.603,0l0,20.059Zm-2226.03,-34.46l-59.663,-0l0,-28.289l152.757,0l0,28.289l-59.663,-0l0,151.728l-33.431,0l-0,-151.728Zm193.132,12.858c17.316,0 31.203,5.058 41.661,15.173c10.458,10.115 15.687,25.117 15.687,45.004l0,78.693l-32.146,0l0,-74.578c0,-12.001 -2.829,-21.045 -8.486,-27.131c-5.658,-6.087 -13.716,-9.13 -24.174,-9.13c-11.83,0 -21.173,3.558 -28.031,10.673c-6.858,7.115 -10.287,17.358 -10.287,30.731l0,69.435l-32.146,0l0,-190.818l32.146,0l0,69.435c5.315,-5.657 11.873,-9.986 19.674,-12.987c7.8,-3 16.501,-4.5 26.102,-4.5Zm128.84,21.602c9.258,-14.401 25.546,-21.602 48.862,-21.602l0,30.603c-2.743,-0.514 -5.229,-0.772 -7.458,-0.772c-12.515,0 -22.287,3.644 -29.317,10.93c-7.029,7.286 -10.544,17.787 -10.544,31.503l0,66.606l-32.145,0l-0,-137.327l30.602,0l0,20.059Zm672.234,-21.602c17.316,0 31.203,5.058 41.661,15.173c10.458,10.115 15.687,25.117 15.687,45.004l0,78.693l-32.146,0l0,-74.578c0,-12.001 -2.828,-21.045 -8.486,-27.131c-5.658,-6.087 -13.716,-9.13 -24.174,-9.13c-11.829,0 -21.173,3.558 -28.031,10.673c-6.858,7.115 -10.287,17.358 -10.287,30.731l0,69.435l-32.145,0l-0,-190.818l32.145,0l0,69.435c5.315,-5.657 11.873,-9.986 19.674,-12.987c7.8,-3 16.501,-4.5 26.102,-4.5Zm788.473,21.602c9.258,-14.401 25.545,-21.602 48.862,-21.602l-0,30.603c-2.743,-0.514 -5.229,-0.772 -7.458,-0.772c-12.516,0 -22.288,3.644 -29.317,10.93c-7.029,7.286 -10.544,17.787 -10.544,31.503l0,66.606l-32.146,0l0,-137.327l30.603,0l0,20.059Zm-284.169,-21.602c17.316,0 31.031,5.015 41.147,15.044c10.115,10.03 15.172,25.074 15.172,45.133l0,78.693l-32.145,0l-0,-74.578c-0,-12.001 -2.658,-21.045 -7.973,-27.131c-5.314,-6.087 -12.944,-9.13 -22.887,-9.13c-10.801,0 -19.459,3.558 -25.974,10.673c-6.515,7.115 -9.773,17.273 -9.773,30.474l0,69.692l-32.145,0l-0,-74.578c-0,-12.001 -2.658,-21.045 -7.973,-27.131c-5.314,-6.087 -12.944,-9.13 -22.887,-9.13c-10.973,0 -19.674,3.515 -26.103,10.544c-6.429,7.029 -9.644,17.23 -9.644,30.603l0,69.692l-32.145,0l-0,-137.327l30.602,0l0,17.487c5.144,-6.172 11.573,-10.886 19.288,-14.144c7.715,-3.257 16.287,-4.886 25.717,-4.886c10.286,0 19.416,1.929 27.388,5.786c7.972,3.858 14.273,9.558 18.902,17.102c5.657,-7.201 12.944,-12.816 21.859,-16.845c8.915,-4.028 18.773,-6.043 29.574,-6.043Zm585.054,-12.858l-59.663,-0l0,-28.289l152.757,0l0,28.289l-59.662,-0l-0,151.728l-33.432,0l0,-151.728Zm-439.498,130.126c8.058,0 15.216,-1.843 21.474,-5.529c6.257,-3.686 10.672,-8.958 13.244,-15.816l-0,-15.944l-33.175,-0c-18.516,-0 -27.774,6.086 -27.774,18.259c0,5.829 2.315,10.458 6.944,13.887c4.629,3.429 11.058,5.143 19.287,5.143Zm860.994,0c8.058,0 15.216,-1.843 21.474,-5.529c6.257,-3.686 10.672,-8.958 13.244,-15.816l-0,-15.944l-33.175,-0c-18.516,-0 -27.774,6.086 -27.774,18.259c0,5.829 2.315,10.458 6.944,13.887c4.629,3.429 11.058,5.143 19.287,5.143Zm-2046.53,-4.115c11.83,0 21.602,-3.943 29.317,-11.829c7.715,-7.887 11.572,-18.259 11.572,-31.117c0,-12.859 -3.857,-23.231 -11.572,-31.118c-7.715,-7.886 -17.487,-11.829 -29.317,-11.829c-11.83,-0 -21.559,3.943 -29.188,11.829c-7.63,7.887 -11.444,18.259 -11.444,31.118c-0,12.858 3.814,23.23 11.444,31.117c7.629,7.886 17.358,11.829 29.188,11.829Zm342.289,-7.715c12.172,0 22.159,-3.643 29.96,-10.929c7.8,-7.287 11.701,-16.759 11.701,-28.417c-0,-11.487 -3.901,-20.831 -11.701,-28.031c-7.801,-7.201 -17.788,-10.801 -29.96,-10.801c-12.344,-0 -22.417,3.6 -30.217,10.801c-7.801,7.2 -11.701,16.544 -11.701,28.031c-0,11.658 3.9,21.13 11.701,28.417c7.8,7.286 17.873,10.929 30.217,10.929Zm1559.72,-79.721c-10.286,-0 -18.987,3.043 -26.102,9.129c-7.115,6.086 -11.444,14.187 -12.987,24.302l77.922,0c-1.372,-9.943 -5.572,-18.001 -12.602,-24.173c-7.029,-6.172 -15.772,-9.258 -26.231,-9.258Zm-888.253,-281.341l-0,116.497c-0,48.347 -24.688,72.521 -74.064,72.521c-13.201,-0 -25.717,-1.672 -37.546,-5.015c-11.83,-3.343 -21.602,-8.186 -29.317,-14.53l14.401,-24.173c6,4.971 13.587,8.958 22.759,11.958c9.172,3 18.473,4.5 27.903,4.5c15.087,0 26.145,-3.429 33.174,-10.286c7.029,-6.858 10.544,-17.316 10.544,-31.375l0,-7.2c-5.486,6 -12.173,10.543 -20.059,13.629c-7.886,3.086 -16.544,4.629 -25.974,4.629c-13.03,0 -24.816,-2.786 -35.36,-8.357c-10.544,-5.572 -18.859,-13.416 -24.945,-23.531c-6.087,-10.115 -9.13,-21.688 -9.13,-34.718c0,-13.03 3.043,-24.559 9.13,-34.589c6.086,-10.029 14.401,-17.787 24.945,-23.273c10.544,-5.486 22.33,-8.23 35.36,-8.23c9.944,0 18.988,1.629 27.131,4.887c8.144,3.257 14.959,8.229 20.445,14.915l0,-18.259l30.603,0Zm1644.07,0l-64.291,148.386c-6.001,14.915 -13.287,25.416 -21.86,31.503c-8.572,6.086 -18.944,9.129 -31.117,9.129c-6.858,-0 -13.63,-1.114 -20.316,-3.343c-6.686,-2.229 -12.172,-5.315 -16.459,-9.258l12.859,-23.66c3.086,2.915 6.729,5.229 10.929,6.944c4.201,1.714 8.444,2.572 12.73,2.572c5.658,-0 10.33,-1.458 14.016,-4.372c3.686,-2.915 7.072,-7.801 10.158,-14.659l2.314,-5.4l-59.92,-137.842l33.432,0l43.204,101.581l43.461,-101.581l30.86,0Zm-2674.28,0l-64.291,148.386c-6.001,14.915 -13.287,25.416 -21.86,31.503c-8.572,6.086 -18.944,9.129 -31.117,9.129c-6.857,-0 -13.63,-1.114 -20.316,-3.343c-6.686,-2.229 -12.172,-5.315 -16.459,-9.258l12.859,-23.66c3.086,2.915 6.729,5.229 10.929,6.944c4.201,1.714 8.444,2.572 12.73,2.572c5.658,-0 10.33,-1.458 14.016,-4.372c3.686,-2.915 7.072,-7.801 10.158,-14.659l2.314,-5.4l-59.92,-137.842l33.432,0l43.204,101.581l43.461,-101.581l30.86,0Zm2391.65,0l0,137.327l-30.603,0l0,-17.487c-5.143,6.172 -11.572,10.93 -19.287,14.273c-7.715,3.343 -16.03,5.015 -24.945,5.015c-18.345,-0 -32.789,-5.101 -43.333,-15.302c-10.544,-10.201 -15.816,-25.331 -15.816,-45.39l0,-78.436l32.146,0l0,74.064c0,12.344 2.786,21.56 8.358,27.646c5.572,6.086 13.501,9.129 23.788,9.129c11.487,0 20.616,-3.557 27.388,-10.672c6.772,-7.115 10.158,-17.359 10.158,-30.732l0,-69.435l32.146,0Zm-448.499,69.435c0,2.229 -0.171,5.401 -0.514,9.516l-107.753,-0c1.886,10.115 6.815,18.13 14.787,24.045c7.973,5.915 17.873,8.872 29.703,8.872c15.087,-0 27.517,-4.972 37.289,-14.916l17.23,19.802c-6.172,7.372 -13.972,12.944 -23.402,16.716c-9.429,3.772 -20.059,5.658 -31.888,5.658c-15.087,-0 -28.374,-3.001 -39.861,-9.001c-11.487,-6.001 -20.359,-14.359 -26.617,-25.074c-6.258,-10.715 -9.387,-22.845 -9.387,-36.389c0,-13.373 3.044,-25.417 9.13,-36.132c6.086,-10.715 14.53,-19.073 25.331,-25.074c10.801,-6 22.973,-9.001 36.517,-9.001c13.373,0 25.331,2.958 35.875,8.873c10.544,5.915 18.773,14.23 24.688,24.945c5.915,10.715 8.872,23.102 8.872,37.16Zm225.536,69.693c-11.144,-0 -22.031,-1.458 -32.661,-4.372c-10.629,-2.915 -19.116,-6.601 -25.459,-11.058l12.344,-24.431c6.172,4.114 13.587,7.415 22.245,9.901c8.658,2.486 17.187,3.729 25.588,3.729c19.202,-0 28.803,-5.058 28.803,-15.173c-0,-4.801 -2.443,-8.144 -7.33,-10.03c-4.886,-1.886 -12.729,-3.686 -23.53,-5.4c-11.316,-1.715 -20.531,-3.686 -27.646,-5.915c-7.115,-2.229 -13.287,-6.129 -18.516,-11.701c-5.229,-5.572 -7.843,-13.33 -7.843,-23.274c-0,-13.03 5.443,-23.445 16.33,-31.245c10.886,-7.801 25.588,-11.702 44.104,-11.702c9.429,0 18.859,1.072 28.288,3.215c9.43,2.143 17.145,5.015 23.145,8.615l-12.344,24.431c-11.658,-6.858 -24.774,-10.287 -39.346,-10.287c-9.43,0 -16.588,1.415 -21.474,4.244c-4.886,2.828 -7.329,6.557 -7.329,11.186c-0,5.144 2.614,8.787 7.844,10.93c5.229,2.143 13.329,4.157 24.302,6.043c10.972,1.715 19.973,3.686 27.002,5.915c7.03,2.229 13.073,6.001 18.131,11.315c5.057,5.315 7.586,12.859 7.586,22.631c-0,12.858 -5.572,23.145 -16.716,30.86c-11.144,7.715 -26.317,11.573 -45.518,11.573Zm-939.43,-9.258c-3.772,3.086 -8.358,5.4 -13.759,6.943c-5.4,1.543 -11.101,2.315 -17.101,2.315c-15.087,-0 -26.745,-3.944 -34.975,-11.83c-8.229,-7.887 -12.344,-19.373 -12.344,-34.46l0,-66.092l-22.63,-0l-0,-25.717l22.63,0l0,-31.374l32.146,-0l0,31.374l36.775,0l-0,25.717l-36.775,-0l0,65.32c0,6.686 1.629,11.787 4.886,15.302c3.258,3.514 7.972,5.271 14.144,5.271c7.201,0 13.202,-1.885 18.002,-5.657l9.001,22.888Zm-735.24,-183.36l0,190.817l-30.86,0l0,-17.744c-5.314,6.515 -11.872,11.401 -19.673,14.658c-7.801,3.258 -16.416,4.887 -25.845,4.887c-13.201,-0 -25.074,-2.915 -35.618,-8.744c-10.543,-5.829 -18.816,-14.101 -24.816,-24.817c-6.001,-10.715 -9.001,-23.016 -9.001,-36.903c-0,-13.887 3,-26.145 9.001,-36.775c6,-10.629 14.273,-18.859 24.816,-24.688c10.544,-5.829 22.417,-8.744 35.618,-8.744c9.086,0 17.402,1.543 24.945,4.629c7.544,3.086 13.973,7.715 19.288,13.887l-0,-70.463l32.145,-0Zm-650.888,122.925c-0,2.229 -0.172,5.401 -0.515,9.516l-107.753,-0c1.886,10.115 6.815,18.13 14.788,24.045c7.972,5.915 17.873,8.872 29.702,8.872c15.087,-0 27.517,-4.972 37.289,-14.916l17.231,19.802c-6.172,7.372 -13.973,12.944 -23.403,16.716c-9.429,3.772 -20.059,5.658 -31.888,5.658c-15.087,-0 -28.374,-3.001 -39.861,-9.001c-11.487,-6.001 -20.359,-14.359 -26.617,-25.074c-6.258,-10.715 -9.386,-22.845 -9.386,-36.389c-0,-13.373 3.043,-25.417 9.129,-36.132c6.086,-10.715 14.53,-19.073 25.331,-25.074c10.801,-6 22.974,-9.001 36.518,-9.001c13.372,0 25.331,2.958 35.874,8.873c10.544,5.915 18.774,14.23 24.688,24.945c5.915,10.715 8.873,23.102 8.873,37.16Zm2179.49,-70.978c20.23,0 35.703,4.844 46.419,14.53c10.715,9.687 16.072,24.303 16.072,43.847l0,80.493l-30.345,0l-0,-16.715c-3.943,6 -9.558,10.586 -16.845,13.758c-7.286,3.172 -16.073,4.758 -26.359,4.758c-10.287,-0 -19.288,-1.758 -27.003,-5.272c-7.715,-3.515 -13.672,-8.401 -17.873,-14.659c-4.2,-6.258 -6.3,-13.33 -6.3,-21.216c-0,-12.344 4.586,-22.245 13.758,-29.703c9.172,-7.458 23.617,-11.187 43.333,-11.187l35.489,0l-0,-2.057c-0,-9.601 -2.872,-16.973 -8.615,-22.116c-5.744,-5.144 -14.273,-7.715 -25.589,-7.715c-7.715,-0 -15.301,1.2 -22.759,3.6c-7.458,2.4 -13.758,5.743 -18.902,10.03l-12.601,-23.403c7.201,-5.486 15.859,-9.686 25.974,-12.601c10.115,-2.914 20.831,-4.372 32.146,-4.372Zm-1944.69,140.671c-13.887,-0 -26.403,-3.001 -37.547,-9.001c-11.143,-6.001 -19.844,-14.359 -26.102,-25.074c-6.258,-10.715 -9.387,-22.845 -9.387,-36.389c0,-13.544 3.129,-25.631 9.387,-36.261c6.258,-10.629 14.959,-18.944 26.102,-24.945c11.144,-6 23.66,-9.001 37.547,-9.001c14.058,0 26.659,3.001 37.803,9.001c11.144,6.001 19.845,14.316 26.103,24.945c6.257,10.63 9.386,22.717 9.386,36.261c0,13.544 -3.129,25.674 -9.386,36.389c-6.258,10.715 -14.959,19.073 -26.103,25.074c-11.144,6 -23.745,9.001 -37.803,9.001Zm1230.29,-140.671c20.23,0 35.703,4.844 46.419,14.53c10.715,9.687 16.073,24.303 16.073,43.847l-0,80.493l-30.346,0l-0,-16.715c-3.943,6 -9.558,10.586 -16.845,13.758c-7.286,3.172 -16.072,4.758 -26.359,4.758c-10.287,-0 -19.288,-1.758 -27.003,-5.272c-7.715,-3.515 -13.672,-8.401 -17.873,-14.659c-4.2,-6.258 -6.3,-13.33 -6.3,-21.216c-0,-12.344 4.586,-22.245 13.758,-29.703c9.172,-7.458 23.617,-11.187 43.333,-11.187l35.489,0l-0,-2.057c-0,-9.601 -2.872,-16.973 -8.615,-22.116c-5.744,-5.144 -14.273,-7.715 -25.588,-7.715c-7.715,-0 -15.302,1.2 -22.76,3.6c-7.458,2.4 -13.758,5.743 -18.901,10.03l-12.602,-23.403c7.201,-5.486 15.859,-9.686 25.974,-12.601c10.115,-2.914 20.831,-4.372 32.146,-4.372Zm-1048.21,0c17.316,0 31.203,5.058 41.661,15.173c10.458,10.115 15.687,25.117 15.687,45.004l-0,78.693l-32.146,0l0,-74.578c0,-12.001 -2.829,-21.045 -8.486,-27.131c-5.658,-6.086 -13.716,-9.129 -24.174,-9.129c-11.83,-0 -21.173,3.557 -28.031,10.672c-6.858,7.115 -10.287,17.359 -10.287,30.731l0,69.435l-32.146,0l0,-137.327l30.603,0l0,17.745c5.315,-6.344 12.001,-11.144 20.059,-14.401c8.058,-3.258 17.145,-4.887 27.26,-4.887Zm1151.85,-51.947l32.146,-0l0,190.817l-32.146,0l0,-190.817Zm-592.255,53.49l32.146,0l0,137.327l-32.146,0l0,-137.327Zm-209.333,-42.689l78.693,-0c19.202,-0 36.26,3.729 51.176,11.187c14.916,7.457 26.488,18.001 34.717,31.631c8.23,13.63 12.344,29.36 12.344,47.19c0,17.83 -4.114,33.56 -12.344,47.19c-8.229,13.63 -19.801,24.174 -34.717,31.632c-14.916,7.458 -31.974,11.186 -51.176,11.186l-78.693,0l-0,-180.016Zm462.128,42.689l32.146,0l0,137.327l-32.146,0l0,-137.327Zm1392.04,20.059c9.258,-14.401 25.546,-21.602 48.862,-21.602l-0,30.603c-2.743,-0.514 -5.229,-0.771 -7.458,-0.771c-12.515,-0 -22.288,3.643 -29.317,10.929c-7.029,7.287 -10.544,17.788 -10.544,31.503l0,66.606l-32.146,0l0,-137.327l30.603,0l0,20.059Zm-725.21,0c9.258,-14.401 25.546,-21.602 48.862,-21.602l-0,30.603c-2.743,-0.514 -5.229,-0.771 -7.458,-0.771c-12.515,-0 -22.288,3.643 -29.317,10.929c-7.029,7.287 -10.544,17.788 -10.544,31.503l0,66.606l-32.146,0l0,-137.327l30.603,0l0,20.059Zm-142.47,-34.46l-59.663,0l0,-28.288l152.757,-0l0,28.288l-59.662,0l-0,151.728l-33.432,0l0,-151.728Zm-1947.78,58.12c9.944,3.257 17.83,8.701 23.659,16.33c5.829,7.629 8.744,17.101 8.744,28.417c-0,15.601 -6.001,27.645 -18.002,36.132c-12.001,8.486 -29.488,12.729 -52.462,12.729l-89.494,0l0,-180.016l84.351,-0c21.259,-0 37.632,4.157 49.119,12.472c11.486,8.315 17.23,19.759 17.23,34.332c-0,8.915 -2.058,16.802 -6.172,23.659c-4.115,6.858 -9.773,12.173 -16.973,15.945Zm1654.87,72.006c8.058,0 15.216,-1.843 21.474,-5.529c6.257,-3.686 10.672,-8.958 13.244,-15.815l-0,-15.945l-33.175,0c-18.516,0 -27.774,6.087 -27.774,18.259c0,5.829 2.315,10.458 6.944,13.887c4.629,3.429 11.058,5.143 19.287,5.143Zm714.409,0c8.058,0 15.216,-1.843 21.474,-5.529c6.257,-3.686 10.672,-8.958 13.244,-15.815l-0,-15.945l-33.175,0c-18.516,0 -27.774,6.087 -27.774,18.259c0,5.829 2.315,10.458 6.944,13.887c4.629,3.429 11.058,5.143 19.287,5.143Zm-1596.75,-4.114c7.715,-0 14.659,-1.758 20.831,-5.272c6.172,-3.515 11.058,-8.53 14.658,-15.044c3.601,-6.515 5.401,-14.059 5.401,-22.631c-0,-8.572 -1.8,-16.116 -5.401,-22.631c-3.6,-6.515 -8.486,-11.529 -14.658,-15.044c-6.172,-3.515 -13.116,-5.272 -20.831,-5.272c-7.715,0 -14.658,1.757 -20.83,5.272c-6.172,3.515 -11.058,8.529 -14.659,15.044c-3.6,6.515 -5.4,14.059 -5.4,22.631c-0,8.572 1.8,16.116 5.4,22.631c3.601,6.514 8.487,11.529 14.659,15.044c6.172,3.514 13.115,5.272 20.83,5.272Zm-343.574,-0c11.829,-0 21.602,-3.943 29.317,-11.83c7.715,-7.886 11.572,-18.259 11.572,-31.117c0,-12.858 -3.857,-23.231 -11.572,-31.117c-7.715,-7.887 -17.488,-11.83 -29.317,-11.83c-11.83,0 -21.559,3.943 -29.189,11.83c-7.629,7.886 -11.444,18.259 -11.444,31.117c0,12.858 3.815,23.231 11.444,31.117c7.63,7.887 17.359,11.83 29.189,11.83Zm-469.072,-0.515c25.888,0 38.832,-8.658 38.832,-25.973c-0,-17.316 -12.944,-25.974 -38.832,-25.974l-54.005,-0l-0,51.947l54.005,0Zm1078.56,-2.057c13.201,0 24.816,-2.529 34.846,-7.586c10.029,-5.058 17.744,-12.259 23.145,-21.602c5.4,-9.344 8.101,-20.188 8.101,-32.532c-0,-12.344 -2.701,-23.188 -8.101,-32.531c-5.401,-9.344 -13.116,-16.545 -23.145,-21.602c-10.03,-5.058 -21.645,-7.587 -34.846,-7.587l-43.719,0l0,123.44l43.719,0Zm269.51,-5.143c12.173,-0 22.16,-3.643 29.96,-10.93c7.801,-7.286 11.701,-16.759 11.701,-28.417c0,-11.487 -3.9,-20.83 -11.701,-28.031c-7.8,-7.201 -17.787,-10.801 -29.96,-10.801c-12.344,0 -22.416,3.6 -30.217,10.801c-7.8,7.201 -11.701,16.544 -11.701,28.031c0,11.658 3.901,21.131 11.701,28.417c7.801,7.287 17.873,10.93 30.217,10.93Zm-1183.22,-79.722c-10.287,0 -18.988,3.043 -26.103,9.13c-7.115,6.086 -11.444,14.187 -12.987,24.302l77.922,-0c-1.372,-9.944 -5.572,-18.002 -12.601,-24.174c-7.03,-6.172 -15.773,-9.258 -26.231,-9.258Zm2100.02,0c-10.286,0 -18.987,3.043 -26.102,9.13c-7.115,6.086 -11.444,14.187 -12.987,24.302l77.922,-0c-1.372,-9.944 -5.572,-18.002 -12.602,-24.174c-7.029,-6.172 -15.772,-9.258 -26.231,-9.258Zm-2318.87,-40.632l-0,49.633l47.318,-0c11.659,-0 20.617,-2.1 26.874,-6.301c6.258,-4.2 9.387,-10.329 9.387,-18.387c-0,-8.229 -3.129,-14.444 -9.387,-18.645c-6.257,-4.2 -15.215,-6.3 -26.874,-6.3l-47.318,-0Zm1533.74,-6.172c-5.829,-0 -10.716,-1.843 -14.659,-5.529c-3.943,-3.686 -5.915,-8.273 -5.915,-13.759c0,-5.486 1.972,-10.072 5.915,-13.758c3.943,-3.686 8.83,-5.529 14.659,-5.529c5.829,-0 10.715,1.757 14.658,5.272c3.943,3.514 5.915,7.929 5.915,13.244c0,5.657 -1.929,10.415 -5.786,14.273c-3.858,3.857 -8.787,5.786 -14.787,5.786Zm-252.795,-0c-5.829,-0 -10.715,-1.843 -14.659,-5.529c-3.943,-3.686 -5.914,-8.273 -5.914,-13.759c-0,-5.486 1.971,-10.072 5.914,-13.758c3.944,-3.686 8.83,-5.529 14.659,-5.529c5.829,-0 10.715,1.757 14.658,5.272c3.944,3.514 5.915,7.929 5.915,13.244c0,5.657 -1.929,10.415 -5.786,14.273c-3.858,3.857 -8.787,5.786 -14.787,5.786Z" style="fill:#00b0ff;fill-rule:nonzero;"/></g></g></svg>