<?xml version="1.0" encoding="UTF-8" standalone="no"?><!DOCTYPE svg PUBLIC "-//W3C//DTD SVG 1.1//EN" "http://www.w3.org/Graphics/SVG/1.1/DTD/svg11.dtd"><svg width="100%" height="100%" viewBox="0 0 3472 1132" version="1.1" xmlns="http://www.w3.org/2000/svg" xmlns:xlink="http://www.w3.org/1999/xlink" xml:space="preserve" xmlns:serif="http://www.serif.com/" style="fill-rule:evenodd;clip-rule:evenodd;stroke-linejoin:round;stroke-miterlimit:2;"><g><path d="M3471.25,85.74c0,-47.353 -38.386,-85.74 -85.739,-85.74c-479.117,-0 -2820.66,0 -3299.78,0c-47.352,0 -85.739,38.387 -85.739,85.74c0,210.344 0,750.051 0,960.395c-0,47.352 38.387,85.739 85.739,85.74c479.117,-0 2820.66,-0 3299.78,-0c47.353,-0.001 85.739,-38.388 85.739,-85.74c0,-210.344 0,-750.051 0,-960.395Z" style="fill:#005ab3;"/><path d="M2681.26,872.265l-0,-450.486c-0,-4.092 1.625,-8.016 4.519,-10.909c2.893,-2.893 6.817,-4.519 10.909,-4.518c17.385,-0 45.48,-0 62.865,-0c4.092,-0.001 8.016,1.625 10.91,4.518c2.893,2.893 4.519,6.818 4.519,10.909c-0,21.179 -0,56.666 -0,56.666c15.486,-24.565 35.512,-43.924 60.078,-58.075c24.565,-14.152 52.868,-21.228 84.91,-21.228c28.304,0 54.471,5.741 78.502,17.223c24.031,11.481 44.725,26.968 62.081,46.46c17.356,19.492 30.973,42.455 40.853,68.89c9.88,26.434 14.819,54.337 14.819,83.708c0,30.44 -4.539,59.01 -13.617,85.712c-9.079,26.701 -21.762,49.931 -38.05,69.69c-16.288,19.759 -35.646,35.246 -58.075,46.461c-22.43,11.214 -46.995,16.822 -73.696,16.822c-33.11,-0 -61.947,-7.343 -86.513,-22.029c-24.565,-14.686 -43.79,-34.578 -57.675,-59.678l0,228.891c0,8.52 -6.907,15.427 -15.427,15.427l-106.046,-0.024c-5.721,-0.002 -10.357,-4.64 -10.357,-10.361l0,-93.346c0,-5.722 4.639,-10.361 10.361,-10.361c1.247,-0 2.521,-0 3.768,-0c2.749,-0 5.384,-1.092 7.327,-3.035c1.943,-1.943 3.035,-4.579 3.035,-7.327Zm-1133.3,-134.212c-0.808,-2.792 -3.123,-4.889 -5.981,-5.418c-2.859,-0.528 -5.77,0.602 -7.523,2.921c-5.287,6.909 -11.118,13.462 -17.508,19.649c-16.822,16.288 -35.78,30.039 -56.874,41.254c-21.094,11.214 -43.657,19.759 -67.688,25.633c-24.032,5.874 -47.529,8.812 -70.492,8.812c-40.586,-0 -77.701,-8.545 -111.345,-25.634c-33.644,-17.089 -62.615,-39.384 -86.913,-66.887c-24.298,-27.502 -43.256,-58.743 -56.874,-93.722c-13.617,-34.978 -20.426,-70.625 -20.426,-106.939c-0,-34.711 6.275,-69.023 18.824,-102.934c12.55,-33.91 30.84,-64.216 54.872,-90.918c24.031,-26.701 53.402,-48.329 88.114,-64.884c34.712,-16.555 74.23,-24.832 118.554,-24.832c52.335,-0 97.594,11.481 135.777,34.444c33.759,20.303 59.9,46.033 78.422,77.19c4.014,6.936 2.02,15.793 -4.581,20.339c-15.3,10.624 -42.545,29.387 -59.202,40.858c-3.522,2.419 -7.889,3.269 -12.06,2.347c-4.172,-0.921 -7.775,-3.531 -9.951,-7.208c-5.72,-9.779 -12.224,-18.365 -19.463,-25.786c-10.681,-10.947 -22.162,-19.625 -34.445,-26.033c-12.283,-6.409 -25.099,-11.081 -38.45,-14.019c-13.351,-2.937 -26.434,-4.405 -39.251,-4.405c-27.769,-0 -51.934,5.607 -72.494,16.822c-20.56,11.214 -37.649,25.766 -51.267,43.656c-13.618,17.89 -23.898,38.183 -30.84,60.879c-6.942,22.697 -10.413,45.259 -10.413,67.689c-0,25.099 4.005,49.264 12.015,72.494c8.011,23.23 19.359,43.657 34.044,61.279c14.686,17.623 32.309,31.775 52.869,42.456c20.56,10.68 43.123,16.02 67.688,16.02c12.817,0 26.168,-1.602 40.052,-4.806c13.885,-3.204 27.102,-8.277 39.652,-15.22c12.549,-6.942 24.165,-15.887 34.845,-26.834c7.257,-7.438 13.527,-15.924 18.811,-25.457c1.987,-3.603 5.338,-6.256 9.3,-7.364c3.963,-1.107 8.204,-0.575 11.771,1.477c15.612,8.868 40.1,22.954 53.754,30.809c2.197,1.256 4.87,1.356 7.154,0.266c2.284,-1.09 3.888,-3.231 4.292,-5.729c2.007,-11.955 5.839,-23.305 11.47,-34.055c8.811,-16.821 21.094,-31.107 36.848,-42.855c15.753,-11.749 34.578,-20.961 56.473,-27.636c21.895,-6.676 45.926,-10.013 72.094,-10.013c18.691,-0 36.981,1.602 54.871,4.806c17.89,3.204 33.777,7.743 47.662,13.618l0,-24.031c0,-27.77 -7.877,-49.131 -23.631,-64.084c-15.753,-14.953 -39.117,-22.429 -70.091,-22.429c-22.429,0 -44.324,4.005 -65.685,12.016c-16.754,6.282 -33.837,14.865 -51.248,25.747c-3.711,2.328 -8.239,2.965 -12.449,1.752c-4.209,-1.213 -7.703,-4.162 -9.607,-8.108c-5.894,-12.159 -13.885,-28.725 -19.282,-39.914c-3.449,-7.124 -0.948,-15.702 5.789,-19.856c50.645,-30.737 104.932,-46.134 162.896,-46.134c60.345,0 107.206,14.819 140.583,44.458c33.376,29.638 50.065,72.494 50.065,128.567l-0,130.57c-0,11.214 2.002,19.225 6.008,24.031c2.319,2.784 5.49,4.851 9.511,6.202c5.777,2.204 9.594,7.745 9.594,13.928c0.52,17.262 0.52,48.785 0.52,66.409c0.01,7.564 -5.465,14.02 -12.93,15.245c-12.816,2.089 -24.258,3.153 -34.331,3.153c-20.293,-0 -35.914,-4.54 -46.861,-13.618c-10.948,-9.079 -17.757,-21.094 -20.427,-36.047l-2.403,-23.23c-18.691,24.565 -41.387,43.256 -68.089,56.073c-26.701,12.816 -55.271,19.225 -85.711,19.225c-20.293,-0 -39.251,-3.338 -56.874,-10.013c-17.623,-6.676 -32.843,-16.021 -45.659,-28.037c-12.817,-12.015 -22.83,-26.034 -30.039,-42.054c-2.319,-5.152 -4.264,-10.469 -5.836,-15.951Zm-719.508,-399.197c0,4.092 -1.625,8.016 -4.518,10.909c-2.894,2.894 -6.818,4.519 -10.91,4.519c-37.266,-0 -131.143,-0 -158.694,-0c-2.045,-0 -4.008,0.812 -5.454,2.259c-1.447,1.446 -2.26,3.409 -2.26,5.454c-0,53.906 -0,374.272 -0,448.673c-0,8.52 -6.907,15.427 -15.428,15.427c-20.899,0 -57.988,0 -78.887,0c-8.52,0 -15.428,-6.907 -15.428,-15.427c0,-74.401 0,-394.767 0,-448.673c0,-2.045 -0.813,-4.008 -2.259,-5.454c-1.447,-1.447 -3.409,-2.259 -5.455,-2.259c-27.551,-0 -121.428,-0 -158.694,-0c-4.092,-0 -8.016,-1.625 -10.909,-4.519c-2.894,-2.893 -4.519,-6.817 -4.519,-10.909c-0,-18.109 -0,-47.961 -0,-66.07c-0,-4.092 1.625,-8.016 4.518,-10.909c2.894,-2.894 6.818,-4.519 10.909,-4.519c71.592,-0 370.969,-0 442.561,-0c4.091,-0 8.016,1.625 10.909,4.519c2.893,2.893 4.518,6.817 4.518,10.909c0,18.109 0,47.961 0,66.07Zm1286.53,476.841c-0,5.72 -4.636,10.358 -10.356,10.361c-25.304,0.011 -89.387,0.039 -105.644,0.039c-8.52,0 -15.427,-6.907 -15.428,-15.427c0,-65.853 0,-323.038 0,-388.891c0,-4.092 1.626,-8.016 4.519,-10.909c2.894,-2.893 6.818,-4.519 10.909,-4.518c18.109,-0 47.961,-0 66.07,-0c8.521,-0.001 15.428,6.906 15.428,15.427c0,22.657 0,62.274 0,62.274c15.487,-27.236 36.715,-48.196 63.683,-62.882c26.969,-14.686 57.809,-22.029 92.521,-22.029c35.245,0 62.481,8.545 81.706,25.633c19.225,17.089 31.507,38.183 36.848,63.283c17.089,-28.838 38.717,-50.866 64.884,-66.086c26.167,-15.22 56.073,-22.83 89.717,-22.83c25.633,0 46.727,4.806 63.282,14.419c16.555,9.612 29.372,22.162 38.45,37.649c9.079,15.487 15.353,33.11 18.825,52.869c3.471,19.759 5.206,39.785 5.206,60.078c0,-0 0,103.856 0,137.471c0,2.748 1.092,5.383 3.035,7.326c1.943,1.944 4.578,3.035 7.326,3.035c1.248,0 2.521,0 3.769,0c5.722,0 10.361,4.639 10.361,10.361c-0,21.691 -0,71.66 -0,93.347c-0,5.72 -4.636,10.358 -10.357,10.361c-25.378,0.011 -89.78,0.039 -106.046,0.039c-8.52,0 -15.427,-6.907 -15.427,-15.427c-0,-52.366 -0,-220.079 -0,-220.079c-0,-33.644 -5.741,-58.209 -17.223,-73.696c-11.481,-15.487 -27.369,-23.23 -47.662,-23.23c-21.361,0 -41.387,8.144 -60.078,24.432c-18.691,16.288 -32.041,37.515 -40.052,63.683l0,119.849c0,5.721 4.639,10.36 10.361,10.36c1.185,0 2.394,0 3.58,0c5.722,0.001 10.36,4.639 10.36,10.361c0,21.691 0,71.66 0,93.347c0,5.72 -4.636,10.358 -10.356,10.361c-25.343,0.011 -89.595,0.039 -105.857,0.039c-8.52,0 -15.427,-6.907 -15.427,-15.427c-0,-52.366 -0,-220.079 -0,-220.079c-0,-33.644 -5.741,-58.209 -17.223,-73.696c-11.481,-15.487 -27.369,-23.23 -47.662,-23.23c-20.827,0 -40.719,8.01 -59.677,24.031c-18.958,16.021 -32.443,37.115 -40.453,63.283l-0,120.649c-0,2.748 1.092,5.384 3.035,7.327c1.943,1.943 4.578,3.034 7.326,3.034c1.116,0 2.251,0 3.366,0c5.722,0 10.361,4.639 10.361,10.361c0,21.691 0,71.66 0,93.347Zm-398.174,-60.091c18.156,-0 35.379,-3.205 51.667,-9.613c16.288,-6.408 28.971,-14.953 38.049,-25.633c11.749,-9.079 17.623,-19.225 17.623,-30.44l0,-48.062c-12.817,-4.806 -26.701,-8.678 -41.654,-11.615c-14.953,-2.938 -29.372,-4.406 -43.256,-4.406c-27.77,-0 -50.466,6.275 -68.089,18.824c-17.623,12.55 -26.434,28.437 -26.434,47.662c-0,18.157 6.942,33.244 20.827,45.259c13.885,12.016 30.973,18.024 51.267,18.024Zm1179.93,-12.817c16.021,-0 30.84,-3.471 44.458,-10.414c13.617,-6.942 25.232,-16.287 34.845,-28.036c9.612,-11.749 17.089,-25.366 22.429,-40.853c5.34,-15.487 8.011,-31.508 8.011,-48.063c-0,-17.623 -2.938,-34.044 -8.812,-49.264c-5.874,-15.219 -14.018,-28.437 -24.432,-39.651c-10.413,-11.215 -22.696,-20.026 -36.848,-26.435c-14.151,-6.408 -29.505,-9.612 -46.059,-9.612c-10.147,-0 -20.561,1.735 -31.241,5.207c-10.681,3.471 -20.56,8.411 -29.639,14.819c-9.078,6.408 -17.222,13.885 -24.431,22.429c-7.21,8.545 -12.684,17.89 -16.422,28.037l0,98.528c9.613,24.031 24.299,43.923 44.058,59.677c19.759,15.754 41.12,23.631 64.083,23.631Zm-2123.72,-88.115c-4.503,0 -8.822,-1.788 -12.007,-4.973c-3.184,-3.184 -4.973,-7.503 -4.973,-12.006c0,-17.698 0,-45.27 0,-62.967c0,-4.503 1.789,-8.822 4.973,-12.006c3.185,-3.185 7.504,-4.974 12.007,-4.974c37.572,0 127.387,0 164.959,0c4.503,0 8.822,1.789 12.007,4.974c3.184,3.184 4.973,7.503 4.973,12.006c-0,17.697 -0,45.269 -0,62.967c-0,4.503 -1.789,8.822 -4.973,12.006c-3.185,3.185 -7.504,4.973 -12.007,4.973c-37.572,0 -127.387,0 -164.959,0Z" style="fill:#fff;fill-rule:nonzero;"/></g></svg>