<?xml version="1.0" encoding="UTF-8" standalone="no"?><!DOCTYPE svg PUBLIC "-//W3C//DTD SVG 1.1//EN" "http://www.w3.org/Graphics/SVG/1.1/DTD/svg11.dtd"><svg width="100%" height="100%" viewBox="0 0 2618 1474" version="1.1" xmlns="http://www.w3.org/2000/svg" xmlns:xlink="http://www.w3.org/1999/xlink" xml:space="preserve" xmlns:serif="http://www.serif.com/" style="fill-rule:evenodd;clip-rule:evenodd;stroke-linejoin:round;stroke-miterlimit:2;"><g><path d="M444.438,909.272l-33.575,170.56l-286.875,36.334l20.229,-102.759c94.816,-35.987 195.328,-70.665 300.221,-104.135Zm-244.557,-178.64l49.311,-250.502l-249.192,31.561l44.976,-225.218l785.26,-99.456l-44.977,225.218l-249.192,31.561l-48.396,245.853l-287.79,40.983Z" style="fill:#00258b;"/><path d="M1074.91,732.187l-53.826,270.359l-286.875,36.334l45.228,-228.889c96.502,-26.703 195.286,-52.619 295.473,-77.804Zm563.821,-132.423l-65.777,332.886l-286.875,36.333l60.25,-302.629c96.989,-22.753 194.661,-44.924 292.402,-66.59Zm15.051,-76.174l-841.43,119.824l92.038,-465.788l286.875,-36.334l-60.779,305.191l264.995,-33.562l60.778,-305.192l286.875,-36.334l-89.352,452.195Z" style="fill:#0046bf;"/><g transform="matrix(4.0526,0,0,3.99925,-55919.9,-16828)"><text x="13815.4px" y="4566.36px" style="font-family:'Montserrat-Regular', 'Montserrat';font-size:50px;">T<tspan x="13843.4px 13862.8px 13892.3px " y="4566.36px 4566.36px 4566.36px ">rea</tspan>sur<tspan x="14000.7px " y="4566.36px ">y</tspan></text><text x="14040.9px" y="4566.36px" style="font-family:'Montserrat-Bold', 'Montserrat';font-weight:700;font-size:50px;">Har<tspan x="14133.5px 14186.2px " y="4566.36px 4566.36px ">mo</tspan>nization</text></g><path d="M2579.36,400.454c-6.6,13.193 -14.07,26.094 -22.405,38.699c-40.114,60.661 -96.638,109.205 -169.573,145.633l142.222,226.7l-297.815,37.719l-120.342,-195.883l-70.503,8.93l-42.545,216.513l-286.875,36.334l68.429,-346.305c274.132,-59.505 545.644,-115.146 799.407,-168.34Zm-786.564,103.339l88.908,-449.949l381.69,-48.342c111.833,-14.164 198.746,-0.981 260.74,39.55c61.994,40.531 92.991,104.381 92.991,191.55c0,55.304 -11.09,106.817 -33.272,154.541l-791.057,112.65Zm533.808,-202.805c-0,-56.78 -35.657,-80.654 -106.971,-71.622l-96.03,12.163l-40.114,201.81l117.911,-14.933c39.708,-5.03 70.503,-18.726 92.383,-41.091c21.881,-22.364 32.821,-51.14 32.821,-86.327Z" style="fill:#00a9ff;"/></g></svg>