<?xml version="1.0" encoding="UTF-8" standalone="no"?><!DOCTYPE svg PUBLIC "-//W3C//DTD SVG 1.1//EN" "http://www.w3.org/Graphics/SVG/1.1/DTD/svg11.dtd"><svg width="100%" height="100%" viewBox="0 0 2618 1474" version="1.1" xmlns="http://www.w3.org/2000/svg" xmlns:xlink="http://www.w3.org/1999/xlink" xml:space="preserve" xmlns:serif="http://www.serif.com/" style="fill-rule:evenodd;clip-rule:evenodd;stroke-linejoin:round;stroke-miterlimit:2;"><g><path d="M444.438,909.272l-33.575,170.56l-286.875,36.334l20.229,-102.759c94.816,-35.987 195.328,-70.665 300.221,-104.135Zm-244.557,-178.64l49.311,-250.502l-249.192,31.561l44.976,-225.218l785.26,-99.456l-44.977,225.218l-249.192,31.561l-48.396,245.853l-287.79,40.983Z" style="fill:#00258b;"/><path d="M1074.91,732.187l-53.826,270.359l-286.875,36.334l45.228,-228.889c96.502,-26.703 195.286,-52.619 295.473,-77.804Zm563.821,-132.423l-65.777,332.886l-286.875,36.333l60.25,-302.629c96.989,-22.753 194.661,-44.924 292.402,-66.59Zm15.051,-76.174l-841.43,119.824l92.038,-465.788l286.875,-36.334l-60.779,305.191l264.995,-33.562l60.778,-305.192l286.875,-36.334l-89.352,452.195Z" style="fill:#0046bf;"/><path d="M928.835,1328.88l-53.292,117.778c-4.323,9.865 -9.321,16.864 -14.994,20.996c-5.674,4.133 -12.496,6.199 -20.466,6.199c-5.133,0 -9.929,-0.8 -14.387,-2.399c-4.458,-1.6 -8.308,-3.999 -11.55,-7.199l6.687,-10.598c5.404,5.332 11.888,7.999 19.453,7.999c4.863,-0 9.017,-1.333 12.461,-4c3.445,-2.666 6.653,-7.198 9.625,-13.597l4.661,-10.198l-47.618,-104.981l14.994,0l40.121,89.384l40.121,-89.384l14.184,0Zm1144.66,-3.999c16.886,0 29.854,3.966 38.905,11.898c9.051,7.932 13.576,19.896 13.576,35.893l0,61.389l-29.584,-0l0,-13.398c-5.944,9.998 -17.021,14.997 -33.231,14.997c-8.376,0 -15.637,-1.399 -21.783,-4.199c-6.146,-2.799 -10.841,-6.665 -14.083,-11.598c-3.242,-4.932 -4.863,-10.531 -4.863,-16.796c0,-9.999 3.816,-17.864 11.449,-23.596c7.632,-5.732 19.418,-8.598 35.359,-8.598l25.126,-0c-0,-6.799 -2.094,-12.032 -6.282,-15.698c-4.187,-3.666 -10.469,-5.498 -18.844,-5.498c-5.809,-0 -11.516,0.899 -17.123,2.699c-5.606,1.8 -10.367,4.233 -14.285,7.299l-11.347,-21.796c5.944,-4.133 13.069,-7.332 21.377,-9.599c8.308,-2.266 16.852,-3.399 25.633,-3.399Zm-435.857,110.779c-11.482,0 -21.783,-2.366 -30.901,-7.098c-9.118,-4.733 -16.244,-11.298 -21.377,-19.697c-5.134,-8.398 -7.7,-17.93 -7.7,-28.594c-0,-10.665 2.566,-20.196 7.7,-28.595c5.133,-8.398 12.259,-14.964 21.377,-19.696c9.118,-4.733 19.419,-7.099 30.901,-7.099c11.482,0 21.749,2.366 30.8,7.099c9.051,4.732 16.143,11.298 21.276,19.696c5.133,8.399 7.7,17.93 7.7,28.595c-0,10.664 -2.567,20.196 -7.7,28.594c-5.133,8.399 -12.225,14.964 -21.276,19.697c-9.051,4.732 -19.318,7.098 -30.8,7.098Zm-433.223,-110.779c16.886,0 29.855,3.966 38.905,11.898c9.051,7.932 13.577,19.896 13.577,35.893l-0,61.389l-29.584,-0l-0,-13.398c-5.944,9.998 -17.021,14.997 -33.232,14.997c-8.375,0 -15.636,-1.399 -21.782,-4.199c-6.147,-2.799 -10.841,-6.665 -14.083,-11.598c-3.242,-4.932 -4.863,-10.531 -4.863,-16.796c-0,-9.999 3.816,-17.864 11.448,-23.596c7.633,-5.732 19.419,-8.598 35.359,-8.598l25.126,-0c0,-6.799 -2.094,-12.032 -6.281,-15.698c-4.188,-3.666 -10.469,-5.498 -18.845,-5.498c-5.808,-0 -11.516,0.899 -17.122,2.699c-5.606,1.8 -10.368,4.233 -14.285,7.299l-11.348,-21.796c5.944,-4.133 13.07,-7.332 21.378,-9.599c8.308,-2.266 16.852,-3.399 25.632,-3.399Zm1020.44,103.981c-3.107,2.266 -6.923,3.966 -11.448,5.099c-4.526,1.133 -9.287,1.699 -14.286,1.699c-12.968,0 -22.998,-3.266 -30.09,-9.798c-7.092,-6.532 -10.638,-16.13 -10.638,-28.794l-0,-44.192l-16.818,-0l-0,-23.996l16.818,0l-0,-26.195l31.61,0l0,26.195l27.152,0l0,23.996l-27.152,-0l0,43.792c0,4.532 1.182,8.032 3.546,10.498c2.364,2.466 5.707,3.699 10.03,3.699c4.998,0 9.254,-1.333 12.766,-3.999l8.51,21.996Zm130.697,6.798c-11.483,0 -21.783,-2.366 -30.901,-7.098c-9.119,-4.733 -16.245,-11.298 -21.378,-19.697c-5.133,-8.398 -7.7,-17.93 -7.7,-28.594c0,-10.665 2.567,-20.196 7.7,-28.595c5.133,-8.398 12.259,-14.964 21.378,-19.696c9.118,-4.733 19.418,-7.099 30.901,-7.099c11.482,0 21.749,2.366 30.799,7.099c9.051,4.732 16.143,11.298 21.277,19.696c5.133,8.399 7.699,17.93 7.699,28.595c0,10.664 -2.566,20.196 -7.699,28.594c-5.134,8.399 -12.226,14.964 -21.277,19.697c-9.05,4.732 -19.317,7.098 -30.799,7.098Zm-1982.13,-49.79l-89.157,-0c0.811,10.931 5.066,19.763 12.766,26.495c7.7,6.732 17.426,10.098 29.179,10.098c6.619,-0 12.698,-1.167 18.236,-3.499c5.539,-2.333 10.334,-5.766 14.387,-10.299l8.105,9.199c-4.728,5.599 -10.638,9.865 -17.73,12.797c-7.092,2.933 -14.893,4.4 -23.404,4.4c-10.942,-0 -20.634,-2.3 -29.077,-6.899c-8.443,-4.599 -15.028,-10.965 -19.756,-19.097c-4.728,-8.131 -7.092,-17.33 -7.092,-27.594c-0,-10.265 2.262,-19.463 6.788,-27.595c4.525,-8.132 10.739,-14.464 18.642,-18.997c7.902,-4.532 16.784,-6.798 26.645,-6.798c9.862,-0 18.71,2.266 26.545,6.798c7.835,4.533 13.981,10.832 18.439,18.897c4.458,8.065 6.687,17.297 6.687,27.695l-0.203,4.399Zm341.229,-56.99l0,105.181l-13.779,-0l0,-19.197c-3.782,6.399 -8.983,11.365 -15.602,14.898c-6.619,3.532 -14.184,5.299 -22.695,5.299c-13.914,-0 -24.889,-3.833 -32.927,-11.498c-8.038,-7.666 -12.057,-18.897 -12.057,-33.694l0,-60.989l14.387,0l0,59.589c0,11.065 2.769,19.463 8.308,25.196c5.539,5.732 13.441,8.598 23.708,8.598c11.212,-0 20.06,-3.366 26.544,-10.098c6.484,-6.732 9.726,-16.097 9.726,-28.095l0,-55.19l14.387,0Zm-277.4,-0.799c13.914,-0 24.586,3.432 32.015,10.298c7.43,6.865 11.145,17.03 11.145,30.494l-0,65.188l-13.779,-0l0,-16.397c-3.242,5.465 -8.004,9.731 -14.285,12.797c-6.282,3.067 -13.745,4.6 -22.391,4.6c-11.887,-0 -21.344,-2.8 -28.368,-8.399c-7.025,-5.599 -10.537,-12.997 -10.537,-22.196c0,-8.931 3.276,-16.13 9.828,-21.596c6.551,-5.465 16.987,-8.198 31.306,-8.198l33.839,-0l0,-6.399c0,-9.065 -2.566,-15.964 -7.7,-20.696c-5.133,-4.733 -12.63,-7.099 -22.492,-7.099c-6.754,0 -13.238,1.1 -19.452,3.3c-6.214,2.199 -11.55,5.232 -16.008,9.098l-6.484,-10.598c5.404,-4.533 11.888,-8.032 19.453,-10.498c7.564,-2.466 15.534,-3.699 23.91,-3.699Zm110.838,106.98c-8.645,-0 -16.919,-1.234 -24.822,-3.7c-7.902,-2.466 -14.083,-5.565 -18.54,-9.298l6.484,-11.198c4.458,3.466 10.064,6.299 16.818,8.498c6.754,2.2 13.779,3.3 21.074,3.3c9.726,-0 16.919,-1.5 21.58,-4.499c4.66,-3 6.99,-7.232 6.99,-12.698c0,-3.866 -1.283,-6.899 -3.85,-9.098c-2.566,-2.2 -5.808,-3.866 -9.726,-4.999c-3.917,-1.133 -9.118,-2.233 -15.602,-3.3c-8.646,-1.599 -15.603,-3.232 -20.871,-4.899c-5.269,-1.666 -9.76,-4.499 -13.475,-8.498c-3.715,-3.999 -5.572,-9.532 -5.572,-16.597c-0,-8.798 3.714,-15.997 11.144,-21.596c7.43,-5.599 17.764,-8.398 31.003,-8.398c6.889,-0 13.778,0.899 20.668,2.699c6.889,1.8 12.563,4.166 17.021,7.099l-6.282,11.398c-8.78,-5.999 -19.25,-8.999 -31.407,-8.999c-9.186,0 -16.11,1.6 -20.77,4.799c-4.66,3.2 -6.991,7.399 -6.991,12.598c0,3.999 1.317,7.199 3.952,9.598c2.634,2.4 5.91,4.166 9.827,5.299c3.918,1.133 9.321,2.3 16.21,3.5c8.511,1.599 15.333,3.199 20.466,4.799c5.133,1.599 9.524,4.332 13.171,8.198c3.647,3.866 5.471,9.198 5.471,15.997c0,9.198 -3.884,16.497 -11.651,21.896c-7.768,5.399 -18.541,8.099 -32.32,8.099Zm1236.65,-110.18c13.509,0 24.417,3.999 32.725,11.998c8.308,7.998 12.462,19.863 12.462,35.593l-0,61.589l-31.61,-0l-0,-56.79c-0,-8.531 -1.892,-14.897 -5.674,-19.096c-3.783,-4.199 -9.254,-6.299 -16.413,-6.299c-7.97,0 -14.319,2.433 -19.047,7.299c-4.728,4.865 -7.092,12.097 -7.092,21.696l-0,53.19l-31.611,-0l0,-107.58l30.192,-0l0,12.597c4.188,-4.532 9.389,-8.031 15.603,-10.498c6.214,-2.466 13.036,-3.699 20.465,-3.699Zm73.758,1.6l31.61,-0l-0,107.58l-31.61,-0l-0,-107.58Zm-542.846,14.197c3.783,-5.199 8.882,-9.131 15.299,-11.798c6.416,-2.666 13.812,-3.999 22.188,-3.999l-0,28.795c-3.512,-0.267 -5.876,-0.4 -7.092,-0.4c-9.051,-0 -16.143,2.499 -21.276,7.498c-5.134,5 -7.7,12.498 -7.7,22.496l-0,50.791l-31.611,-0l0,-107.58l30.192,-0l0,14.197Zm-186.622,-46.591l0,139.974l-32.826,-0l0,-57.39l-64.436,0l-0,57.39l-32.826,-0l-0,-139.974l32.826,-0l-0,55.19l64.436,-0l0,-55.19l32.826,-0Zm1113.65,32.394l31.61,-0l0,107.58l-31.61,-0l-0,-107.58Zm-2026.91,22.996c3.378,-7.066 8.41,-12.398 15.096,-15.997c6.687,-3.6 14.961,-5.399 24.822,-5.399l0,13.797l-3.444,-0.2c-11.212,-0 -19.993,3.399 -26.342,10.198c-6.349,6.799 -9.524,16.33 -9.524,28.595l0,53.59l-14.386,-0l-0,-105.181l13.778,0l0,20.597Zm1793.48,60.588l0,23.996l-97.262,-0l-0,-18.797l55.52,-64.788l-54.102,0l0,-23.995l94.021,-0l-0,18.796l-55.521,64.788l57.344,0Zm-497.659,-85.184c13.644,0 24.485,3.966 32.522,11.898c8.038,7.932 12.057,19.83 12.057,35.693l-0,61.589l-31.61,-0l-0,-56.79c-0,-8.531 -1.79,-14.897 -5.37,-19.096c-3.58,-4.199 -8.679,-6.299 -15.299,-6.299c-7.429,0 -13.306,2.366 -17.628,7.099c-4.323,4.732 -6.485,11.764 -6.485,21.096l0,53.99l-31.61,-0l0,-56.79c0,-16.93 -6.889,-25.395 -20.668,-25.395c-7.295,0 -13.103,2.366 -17.426,7.099c-4.323,4.732 -6.484,11.764 -6.484,21.096l-0,53.99l-31.611,-0l0,-107.58l30.192,-0l0,12.398c4.053,-4.533 9.017,-7.999 14.893,-10.399c5.877,-2.399 12.327,-3.599 19.352,-3.599c7.7,0 14.657,1.5 20.871,4.499c6.213,3 11.212,7.366 14.994,13.098c4.458,-5.599 10.098,-9.932 16.92,-12.998c6.822,-3.066 14.285,-4.599 22.39,-4.599Zm-742.841,24.596c3.377,-7.066 8.409,-12.398 15.096,-15.997c6.687,-3.6 14.961,-5.399 24.822,-5.399l0,13.797l-3.444,-0.2c-11.213,-0 -19.993,3.399 -26.342,10.198c-6.349,6.799 -9.524,16.33 -9.524,28.595l0,53.59l-14.387,-0l0,-105.181l13.779,0l0,20.597Zm-649.631,-42.593l-49.847,0l0,-12.797l114.689,-0l-0,12.797l-49.847,0l-0,127.177l-14.995,-0l-0,-127.177Zm2383.53,17.997c13.509,0 24.417,3.999 32.725,11.998c8.307,7.998 12.461,19.863 12.461,35.593l0,61.589l-31.61,-0l0,-56.79c0,-8.531 -1.891,-14.897 -5.674,-19.096c-3.782,-4.199 -9.253,-6.299 -16.413,-6.299c-7.97,0 -14.319,2.433 -19.047,7.299c-4.728,4.865 -7.092,12.097 -7.092,21.696l0,53.19l-31.61,-0l-0,-107.58l30.192,-0l-0,12.597c4.187,-4.532 9.388,-8.031 15.602,-10.498c6.214,-2.466 13.036,-3.699 20.466,-3.699Zm-2070.47,98.982c8.105,-0 15.062,-1.833 20.871,-5.499c5.809,-3.666 10.131,-8.965 12.968,-15.897l0,-17.197l-33.434,-0c-18.236,-0 -27.355,6.265 -27.355,18.796c0,6.133 2.364,10.965 7.092,14.498c4.728,3.532 11.348,5.299 19.858,5.299Zm769.791,-9.199c5.403,0 10.199,-1.233 14.387,-3.699c4.187,-2.466 7.159,-6.099 8.915,-10.898l0,-10.998l-21.681,0c-12.968,0 -19.453,4.199 -19.453,12.598c0,3.999 1.588,7.165 4.762,9.498c3.175,2.333 7.531,3.499 13.07,3.499Zm869.079,0c5.404,0 10.199,-1.233 14.387,-3.699c4.188,-2.466 7.16,-6.099 8.916,-10.898l-0,-10.998l-21.682,0c-12.968,0 -19.452,4.199 -19.452,12.598c-0,3.999 1.587,7.165 4.762,9.498c3.174,2.333 7.531,3.499 13.069,3.499Zm284.493,-4.599c8.105,0 14.758,-2.699 19.959,-8.098c5.201,-5.399 7.801,-12.631 7.801,-21.696c-0,-9.065 -2.6,-16.297 -7.801,-21.696c-5.201,-5.399 -11.854,-8.099 -19.959,-8.099c-8.106,0 -14.792,2.7 -20.061,8.099c-5.268,5.399 -7.902,12.631 -7.902,21.696c-0,9.065 2.634,16.297 7.902,21.696c5.269,5.399 11.955,8.098 20.061,8.098Zm-717.918,0c8.105,0 14.758,-2.699 19.959,-8.098c5.201,-5.399 7.801,-12.631 7.801,-21.696c0,-9.065 -2.6,-16.297 -7.801,-21.696c-5.201,-5.399 -11.854,-8.099 -19.959,-8.099c-8.105,0 -14.792,2.7 -20.06,8.099c-5.269,5.399 -7.903,12.631 -7.903,21.696c0,9.065 2.634,16.297 7.903,21.696c5.268,5.399 11.955,8.098 20.06,8.098Zm-1315.68,-69.787c-10.266,0 -18.878,3.233 -25.835,9.698c-6.957,6.466 -10.908,14.898 -11.854,25.296l75.581,-0c-0.945,-10.398 -4.897,-18.83 -11.854,-25.296c-6.957,-6.465 -15.636,-9.698 -26.038,-9.698Zm1552.35,-28.794c-5.809,-0 -10.537,-1.667 -14.184,-4.999c-3.648,-3.333 -5.471,-7.466 -5.471,-12.398c-0,-4.933 1.823,-9.065 5.471,-12.398c3.647,-3.333 8.375,-4.999 14.184,-4.999c5.808,0 10.536,1.6 14.184,4.799c3.647,3.2 5.471,7.199 5.471,11.998c-0,5.199 -1.824,9.498 -5.471,12.898c-3.648,3.399 -8.376,5.099 -14.184,5.099Zm384.186,-0c-5.809,-0 -10.537,-1.667 -14.184,-4.999c-3.647,-3.333 -5.471,-7.466 -5.471,-12.398c-0,-4.933 1.824,-9.065 5.471,-12.398c3.647,-3.333 8.375,-4.999 14.184,-4.999c5.809,0 10.537,1.6 14.184,4.799c3.647,3.2 5.471,7.199 5.471,11.998c0,5.199 -1.824,9.498 -5.471,12.898c-3.647,3.399 -8.375,5.099 -14.184,5.099Z" style="fill-rule:nonzero;"/><path d="M2579.36,400.454c-6.6,13.193 -14.07,26.094 -22.405,38.699c-40.114,60.661 -96.638,109.205 -169.573,145.633l142.222,226.7l-297.815,37.719l-120.342,-195.883l-70.503,8.93l-42.545,216.513l-286.875,36.334l68.429,-346.305c274.132,-59.505 545.644,-115.146 799.407,-168.34Zm-786.564,103.339l88.908,-449.949l381.69,-48.342c111.833,-14.164 198.746,-0.981 260.74,39.55c61.994,40.531 92.991,104.381 92.991,191.55c0,55.304 -11.09,106.817 -33.272,154.541l-791.057,112.65Zm533.808,-202.805c-0,-56.78 -35.657,-80.654 -106.971,-71.622l-96.03,12.163l-40.114,201.81l117.911,-14.933c39.708,-5.03 70.503,-18.726 92.383,-41.091c21.881,-22.364 32.821,-51.14 32.821,-86.327Z" style="fill:#00a9ff;"/></g></svg>