<?xml version="1.0" encoding="UTF-8" standalone="no"?><!DOCTYPE svg PUBLIC "-//W3C//DTD SVG 1.1//EN" "http://www.w3.org/Graphics/SVG/1.1/DTD/svg11.dtd"><svg width="100%" height="100%" viewBox="0 0 3560 1576" version="1.1" xmlns="http://www.w3.org/2000/svg" xmlns:xlink="http://www.w3.org/1999/xlink" xml:space="preserve" xmlns:serif="http://www.serif.com/" style="fill-rule:evenodd;clip-rule:evenodd;stroke-linecap:round;stroke-linejoin:round;stroke-miterlimit:1.5;"><g><path d="M3545.51,162.009l-2988.1,0l-0,1149.32l2758.59,-0l229.513,-1149.32Z" style="fill:#fff;stroke:#bbb;stroke-width:27.21px;"/><g><path d="M738.424,838.473l10.552,45.02l-170.639,16.405c-28.016,2.694 -55.662,7.561 -82.683,14.559c-48.416,12.538 -127.807,33.098 -167.781,43.45c-6.261,1.622 -13.067,0.494 -18.704,-3.102c-5.638,-3.595 -9.573,-9.315 -10.815,-15.722c-0.001,-0.002 -0.001,-0.003 -0.001,-0.005c-2.209,-11.387 4.526,-22.159 15.655,-25.042c37.941,-9.825 122.31,-31.674 172.883,-44.771c27.02,-6.998 54.666,-11.866 82.682,-14.559l168.851,-16.233Zm50.909,-4.894l144.591,-13.901l11.152,44.963l-145.191,13.958l-10.552,-45.02Zm-69.722,-75.373l10.552,45.02l-171.519,16.489c-28.016,2.694 -55.662,7.562 -82.683,14.559c-48.415,12.539 -127.807,33.099 -167.78,43.451c-6.262,1.622 -13.068,0.493 -18.705,-3.102c-5.638,-3.596 -9.573,-9.316 -10.815,-15.723c-0.001,-0.001 -0.001,-0.003 -0.001,-0.004c-2.209,-11.388 4.526,-22.16 15.655,-25.042c37.941,-9.826 122.31,-31.675 172.883,-44.772c27.02,-6.997 54.666,-11.865 82.683,-14.559l169.73,-16.317Zm50.908,-4.894l143.523,-13.798l11.151,44.962l-144.121,13.856l-10.553,-45.02Zm-72.223,-86.043l10.552,45.02l-172.21,16.556c-28.016,2.693 -55.662,7.561 -82.682,14.559c-48.416,12.538 -127.807,33.098 -167.781,43.45c-6.262,1.622 -13.067,0.493 -18.705,-3.102c-5.638,-3.595 -9.573,-9.315 -10.815,-15.722c-0,-0.002 -0.001,-0.003 -0.001,-0.005c-2.208,-11.388 4.526,-22.159 15.656,-25.042c37.94,-9.825 122.309,-31.674 172.882,-44.771c27.021,-6.998 54.666,-11.866 82.683,-14.559l170.421,-16.384Zm50.909,-4.894l142.311,-13.682l11.152,44.963l-142.911,13.739l-10.552,-45.02Zm-70.029,-76.682l10.552,45.02l-174.498,16.776c-28.017,2.694 -55.662,7.561 -82.683,14.559c-48.416,12.538 -127.807,33.098 -167.781,43.451c-6.262,1.621 -13.067,0.493 -18.705,-3.103c-5.638,-3.595 -9.572,-9.315 -10.815,-15.722c0,-0.002 -0,-0.003 -0,-0.005c-2.209,-11.387 4.526,-22.159 15.655,-25.041c37.94,-9.826 122.31,-31.675 172.883,-44.772c27.02,-6.998 54.666,-11.866 82.682,-14.559l172.71,-16.604Zm50.909,-4.894l141.225,-13.577l11.152,44.962l-141.825,13.635l-10.552,-45.02Zm-72.668,-87.94l10.552,45.02l-171.18,16.457c-28.016,2.694 -55.662,7.562 -82.682,14.559c-48.416,12.538 -127.807,33.098 -167.781,43.451c-6.262,1.621 -13.067,0.493 -18.705,-3.103c-5.638,-3.595 -9.572,-9.315 -10.815,-15.722c-0,-0.002 -0.001,-0.003 -0.001,-0.005c-2.208,-11.387 4.526,-22.159 15.656,-25.041c37.94,-9.826 122.31,-31.675 172.882,-44.772c27.021,-6.998 54.667,-11.866 82.683,-14.559l169.391,-16.285Zm50.909,-4.894l139.989,-13.458l11.152,44.962l-140.589,13.516l-10.552,-45.02Zm-70.668,-79.409l10.552,45.02l-173.86,16.714c-28.017,2.694 -55.663,7.562 -82.683,14.559c-48.416,12.539 -127.807,33.099 -167.781,43.451c-6.262,1.621 -13.067,0.493 -18.705,-3.102c-5.638,-3.596 -9.572,-9.316 -10.815,-15.723c-0,-0.001 -0,-0.003 -0.001,-0.004c-2.208,-11.388 4.526,-22.16 15.656,-25.042c37.94,-9.826 122.31,-31.675 172.882,-44.772c27.021,-6.998 54.667,-11.865 82.683,-14.559l172.072,-16.542Zm50.908,-4.895l138.867,-13.35l11.151,44.963l-139.465,13.408l-10.553,-45.021Zm-72.136,-85.672l10.552,45.02l-170.698,16.411c-28.016,2.693 -55.662,7.561 -82.683,14.559c-48.415,12.538 -127.807,33.098 -167.781,43.45c-6.261,1.622 -13.067,0.493 -18.704,-3.102c-5.638,-3.595 -9.573,-9.315 -10.815,-15.722c-0.001,-0.002 -0.001,-0.003 -0.001,-0.005c-2.209,-11.388 4.526,-22.159 15.655,-25.042c37.941,-9.825 122.31,-31.674 172.883,-44.771c27.02,-6.998 54.666,-11.866 82.683,-14.559l168.909,-16.239Zm50.909,-4.894l137.66,-13.234l11.152,44.962l-138.26,13.292l-10.552,-45.02Zm-72.136,-85.672l10.552,45.02l-167.537,16.107c-28.016,2.693 -55.662,7.561 -82.682,14.558c-48.416,12.539 -127.807,33.099 -167.781,43.451c-6.262,1.622 -13.067,0.493 -18.705,-3.102c-5.638,-3.596 -9.573,-9.316 -10.815,-15.723c-0,-0.001 -0.001,-0.003 -0.001,-0.004c-2.208,-11.388 4.526,-22.16 15.656,-25.042c37.94,-9.826 122.31,-31.675 172.882,-44.772c27.021,-6.997 54.667,-11.865 82.683,-14.559l165.748,-15.934Zm50.908,-4.895l136.455,-13.118l11.152,44.963l-137.054,13.176l-10.553,-45.021Z" style="fill:#00356b;"/><clipPath id="_clip1"><path d="M738.424,838.473l10.552,45.02l-170.639,16.405c-28.016,2.694 -55.662,7.561 -82.683,14.559c-48.416,12.538 -127.807,33.098 -167.781,43.45c-6.261,1.622 -13.067,0.494 -18.704,-3.102c-5.638,-3.595 -9.573,-9.315 -10.815,-15.722c-0.001,-0.002 -0.001,-0.003 -0.001,-0.005c-2.209,-11.387 4.526,-22.159 15.655,-25.042c37.941,-9.825 122.31,-31.674 172.883,-44.771c27.02,-6.998 54.666,-11.866 82.682,-14.559l168.851,-16.233Zm50.909,-4.894l144.591,-13.901l11.152,44.963l-145.191,13.958l-10.552,-45.02Zm-69.722,-75.373l10.552,45.02l-171.519,16.489c-28.016,2.694 -55.662,7.562 -82.683,14.559c-48.415,12.539 -127.807,33.099 -167.78,43.451c-6.262,1.622 -13.068,0.493 -18.705,-3.102c-5.638,-3.596 -9.573,-9.316 -10.815,-15.723c-0.001,-0.001 -0.001,-0.003 -0.001,-0.004c-2.209,-11.388 4.526,-22.16 15.655,-25.042c37.941,-9.826 122.31,-31.675 172.883,-44.772c27.02,-6.997 54.666,-11.865 82.683,-14.559l169.73,-16.317Zm50.908,-4.894l143.523,-13.798l11.151,44.962l-144.121,13.856l-10.553,-45.02Zm-72.223,-86.043l10.552,45.02l-172.21,16.556c-28.016,2.693 -55.662,7.561 -82.682,14.559c-48.416,12.538 -127.807,33.098 -167.781,43.45c-6.262,1.622 -13.067,0.493 -18.705,-3.102c-5.638,-3.595 -9.573,-9.315 -10.815,-15.722c-0,-0.002 -0.001,-0.003 -0.001,-0.005c-2.208,-11.388 4.526,-22.159 15.656,-25.042c37.94,-9.825 122.309,-31.674 172.882,-44.771c27.021,-6.998 54.666,-11.866 82.683,-14.559l170.421,-16.384Zm50.909,-4.894l142.311,-13.682l11.152,44.963l-142.911,13.739l-10.552,-45.02Zm-70.029,-76.682l10.552,45.02l-174.498,16.776c-28.017,2.694 -55.662,7.561 -82.683,14.559c-48.416,12.538 -127.807,33.098 -167.781,43.451c-6.262,1.621 -13.067,0.493 -18.705,-3.103c-5.638,-3.595 -9.572,-9.315 -10.815,-15.722c0,-0.002 -0,-0.003 -0,-0.005c-2.209,-11.387 4.526,-22.159 15.655,-25.041c37.94,-9.826 122.31,-31.675 172.883,-44.772c27.02,-6.998 54.666,-11.866 82.682,-14.559l172.71,-16.604Zm50.909,-4.894l141.225,-13.577l11.152,44.962l-141.825,13.635l-10.552,-45.02Zm-72.668,-87.94l10.552,45.02l-171.18,16.457c-28.016,2.694 -55.662,7.562 -82.682,14.559c-48.416,12.538 -127.807,33.098 -167.781,43.451c-6.262,1.621 -13.067,0.493 -18.705,-3.103c-5.638,-3.595 -9.572,-9.315 -10.815,-15.722c-0,-0.002 -0.001,-0.003 -0.001,-0.005c-2.208,-11.387 4.526,-22.159 15.656,-25.041c37.94,-9.826 122.31,-31.675 172.882,-44.772c27.021,-6.998 54.667,-11.866 82.683,-14.559l169.391,-16.285Zm50.909,-4.894l139.989,-13.458l11.152,44.962l-140.589,13.516l-10.552,-45.02Zm-70.668,-79.409l10.552,45.02l-173.86,16.714c-28.017,2.694 -55.663,7.562 -82.683,14.559c-48.416,12.539 -127.807,33.099 -167.781,43.451c-6.262,1.621 -13.067,0.493 -18.705,-3.102c-5.638,-3.596 -9.572,-9.316 -10.815,-15.723c-0,-0.001 -0,-0.003 -0.001,-0.004c-2.208,-11.388 4.526,-22.16 15.656,-25.042c37.94,-9.826 122.31,-31.675 172.882,-44.772c27.021,-6.998 54.667,-11.865 82.683,-14.559l172.072,-16.542Zm50.908,-4.895l138.867,-13.35l11.151,44.963l-139.465,13.408l-10.553,-45.021Zm-72.136,-85.672l10.552,45.02l-170.698,16.411c-28.016,2.693 -55.662,7.561 -82.683,14.559c-48.415,12.538 -127.807,33.098 -167.781,43.45c-6.261,1.622 -13.067,0.493 -18.704,-3.102c-5.638,-3.595 -9.573,-9.315 -10.815,-15.722c-0.001,-0.002 -0.001,-0.003 -0.001,-0.005c-2.209,-11.388 4.526,-22.159 15.655,-25.042c37.941,-9.825 122.31,-31.674 172.883,-44.771c27.02,-6.998 54.666,-11.866 82.683,-14.559l168.909,-16.239Zm50.909,-4.894l137.66,-13.234l11.152,44.962l-138.26,13.292l-10.552,-45.02Zm-72.136,-85.672l10.552,45.02l-167.537,16.107c-28.016,2.693 -55.662,7.561 -82.682,14.558c-48.416,12.539 -127.807,33.099 -167.781,43.451c-6.262,1.622 -13.067,0.493 -18.705,-3.102c-5.638,-3.596 -9.573,-9.316 -10.815,-15.723c-0,-0.001 -0.001,-0.003 -0.001,-0.004c-2.208,-11.388 4.526,-22.16 15.656,-25.042c37.94,-9.826 122.31,-31.675 172.882,-44.772c27.021,-6.997 54.667,-11.865 82.683,-14.559l165.748,-15.934Zm50.908,-4.895l136.455,-13.118l11.152,44.963l-137.054,13.176l-10.553,-45.021Z"/></clipPath><g clip-path="url(#_clip1)"><path d="M349.347,238.479l-331.707,0l198.747,878.757l331.706,-0l-198.746,-878.757Z" style="fill:#001e3f;"/><path d="M682.453,200.177l-73.738,0l193,698.691l73.739,0l-193.001,-698.691Z" style="fill:#001e3f;"/></g><path d="M796.277,863.204c2.038,8.698 10.437,14.738 19.305,13.886c42.084,-4.046 154.254,-14.83 154.254,-14.83l0.822,3.372c45.031,184.717 -111.644,250 -204.958,327.476c-21.718,18.032 -6.919,124.791 20.099,160.991c37.904,50.785 42.58,140.406 -3.708,153.125l-222.704,61.192c-61.525,16.906 -108.308,-0.21 -134.079,-29.599c-40.892,-46.633 -40.383,-105.827 -29.485,-141.751c-30.486,-89.884 -33.282,-143.464 -75.265,-160.369c-0,0 -116.57,-40.282 -163.594,-186.348c-47.025,-146.066 -147.999,-622.351 -147.999,-622.351c-37.561,-147.331 46.044,-326.914 192.086,-385.275c65.108,-26.019 160.987,-50.684 328.648,-40.287c156.04,14.268 250.712,82.801 277.588,193.043c-0,0 0,0.003 0.001,0.008c0.706,2.895 0.158,5.887 -1.511,8.244c-1.669,2.357 -4.304,3.861 -7.261,4.146c-28.008,2.692 -99.852,9.599 -133.933,12.876c-4.757,0.457 -8.999,2.866 -11.702,6.645c-2.702,3.778 -3.617,8.581 -2.524,13.246c0.895,3.815 1.83,7.806 2.698,11.51c2.039,8.697 10.438,14.738 19.306,13.886c38.626,-3.714 135.164,-12.995 135.164,-12.995c7.633,-0.734 14.875,4.428 16.697,11.902c1.257,5.157 2.709,11.113 4.021,16.496c0.989,4.058 0.22,8.251 -2.119,11.555c-2.338,3.303 -6.032,5.412 -10.176,5.81c-0,0 -90.326,8.684 -130.138,12.511c-4.756,0.457 -8.999,2.867 -11.701,6.645c-2.702,3.779 -3.617,8.581 -2.524,13.246c0.894,3.816 1.83,7.806 2.698,11.511c2.038,8.697 10.437,14.738 19.305,13.885c38.781,-3.728 135.996,-13.074 135.996,-13.074c7.633,-0.734 14.875,4.428 16.697,11.902c1.257,5.156 2.709,11.113 4.021,16.496c0.989,4.057 0.22,8.251 -2.118,11.554c-2.339,3.303 -6.033,5.412 -10.177,5.811c0,-0 -90.988,8.747 -130.969,12.591c-4.757,0.457 -8.999,2.866 -11.702,6.645c-2.702,3.778 -3.617,8.581 -2.524,13.246c0.895,3.815 1.83,7.806 2.698,11.51c2.039,8.697 10.438,14.738 19.306,13.886c38.935,-3.744 136.827,-13.155 136.827,-13.155c7.633,-0.734 14.875,4.428 16.697,11.902c0.801,3.286 1.667,6.842 2.496,10.239c0.989,4.058 0.22,8.251 -2.119,11.554c-2.339,3.303 -6.032,5.412 -10.176,5.811c-0,-0 -91.605,8.806 -131.744,12.665c-4.756,0.457 -8.999,2.867 -11.701,6.645c-2.702,3.779 -3.617,8.581 -2.524,13.246c0.894,3.815 1.83,7.806 2.698,11.51c2.038,8.698 10.437,14.739 19.306,13.886c39.078,-3.757 137.6,-13.229 137.6,-13.229c7.634,-0.733 14.875,4.428 16.697,11.902c1.416,5.809 3.092,12.681 4.574,18.762c0.989,4.058 0.22,8.251 -2.119,11.554c-2.339,3.303 -6.032,5.412 -10.176,5.811c-0,-0 -92.284,8.872 -132.596,12.747c-4.756,0.457 -8.999,2.867 -11.701,6.645c-2.702,3.778 -3.618,8.581 -2.524,13.246c0.894,3.815 1.829,7.806 2.698,11.51c2.038,8.698 10.437,14.739 19.306,13.886c39.236,-3.772 138.453,-13.311 138.453,-13.311c7.633,-0.733 14.875,4.428 16.697,11.902c0.594,2.438 1.22,5.007 1.831,7.514c0.989,4.057 0.221,8.251 -2.118,11.554c-2.339,3.303 -6.033,5.412 -10.177,5.81c0,0 -92.881,8.93 -133.344,12.82c-4.757,0.457 -9,2.867 -11.702,6.645c-2.702,3.778 -3.617,8.581 -2.524,13.246c0.894,3.815 1.83,7.806 2.698,11.51c2.038,8.698 10.437,14.738 19.306,13.886c39.374,-3.786 139.202,-13.383 139.202,-13.383c7.633,-0.734 14.875,4.428 16.697,11.902c1.283,5.264 2.771,11.368 4.111,16.866c0.99,4.058 0.221,8.251 -2.118,11.555c-2.339,3.303 -6.032,5.412 -10.177,5.81c0,0 -93.547,8.994 -134.179,12.9c-4.756,0.457 -8.999,2.866 -11.702,6.645c-2.702,3.778 -3.617,8.581 -2.524,13.246c0.895,3.815 1.83,7.806 2.698,11.51c2.039,8.697 10.438,14.738 19.306,13.886c39.528,-3.8 140.037,-13.463 140.037,-13.463c7.633,-0.734 14.875,4.428 16.697,11.902c0.494,2.024 1.007,4.132 1.513,6.206c0.989,4.057 0.22,8.251 -2.119,11.554c-2.339,3.303 -6.032,5.412 -10.176,5.81c-0,0 -94.137,9.05 -134.917,12.971c-4.756,0.457 -8.999,2.867 -11.701,6.645c-2.702,3.778 -3.617,8.581 -2.524,13.246c0.894,3.815 1.83,7.806 2.698,11.51Zm-54.245,-9.336c-2.038,-8.698 -10.437,-14.738 -19.305,-13.886c-41.89,4.027 -153.154,14.724 -153.154,14.724c-28.016,2.693 -55.662,7.561 -82.682,14.559c-50.573,13.097 -134.942,34.946 -172.883,44.771c-11.129,2.883 -17.864,13.655 -15.655,25.042c-0,0.002 0,0.003 0.001,0.005c1.242,6.407 5.177,12.127 10.815,15.722c5.637,3.596 12.443,4.724 18.704,3.102c39.974,-10.352 119.365,-30.912 167.781,-43.45c27.021,-6.998 54.667,-11.865 82.683,-14.559c-0,0 108.014,-10.384 152.168,-14.629c4.756,-0.457 8.999,-2.867 11.701,-6.645c2.702,-3.778 3.618,-8.581 2.524,-13.246c-0.894,-3.815 -1.829,-7.806 -2.698,-11.51Zm-18.813,-80.268c-2.039,-8.697 -10.438,-14.738 -19.306,-13.885c-42.044,4.042 -154.032,14.808 -154.032,14.808c-28.017,2.694 -55.663,7.562 -82.683,14.559c-50.573,13.097 -134.942,34.946 -172.883,44.772c-11.129,2.882 -17.864,13.654 -15.655,25.042c0,0.001 0,0.003 0.001,0.004c1.242,6.407 5.177,12.127 10.815,15.723c5.637,3.595 12.443,4.724 18.705,3.102c39.973,-10.352 119.365,-30.912 167.78,-43.451c27.021,-6.997 54.667,-11.865 82.683,-14.559c0,0 108.726,-10.452 153.047,-14.713c4.757,-0.457 8.999,-2.867 11.702,-6.645c2.702,-3.779 3.617,-8.581 2.524,-13.246c-0.895,-3.816 -1.83,-7.806 -2.698,-11.511Zm-21.314,-90.936c-2.039,-8.698 -10.438,-14.739 -19.306,-13.886c-42.166,4.054 -154.724,14.875 -154.724,14.875c-28.017,2.693 -55.662,7.561 -82.683,14.559c-50.573,13.097 -134.942,34.946 -172.882,44.771c-11.13,2.883 -17.864,13.654 -15.656,25.042c0,0.002 0.001,0.003 0.001,0.005c1.242,6.407 5.177,12.127 10.815,15.722c5.638,3.595 12.443,4.724 18.705,3.102c39.974,-10.352 119.365,-30.912 167.781,-43.45c27.02,-6.998 54.666,-11.866 82.682,-14.559c0,0 109.287,-10.506 153.739,-14.78c4.756,-0.457 8.999,-2.867 11.701,-6.645c2.703,-3.778 3.618,-8.581 2.524,-13.246c-0.894,-3.815 -1.829,-7.806 -2.697,-11.51Zm-19.121,-81.576c-2.038,-8.698 -10.437,-14.738 -19.305,-13.886c-42.567,4.092 -157.013,15.095 -157.013,15.095c-28.016,2.693 -55.662,7.561 -82.682,14.559c-50.573,13.097 -134.943,34.946 -172.883,44.772c-11.129,2.882 -17.864,13.654 -15.655,25.041c-0,0.002 0,0.003 0,0.005c1.243,6.407 5.177,12.127 10.815,15.722c5.638,3.596 12.443,4.724 18.705,3.103c39.974,-10.353 119.365,-30.913 167.781,-43.451c27.021,-6.998 54.666,-11.865 82.683,-14.559c-0,0 111.142,-10.685 156.027,-15c4.756,-0.457 8.999,-2.867 11.701,-6.645c2.702,-3.778 3.618,-8.581 2.524,-13.246c-0.894,-3.815 -1.829,-7.806 -2.698,-11.51Zm-21.759,-92.834c-2.038,-8.697 -10.437,-14.738 -19.305,-13.886c-41.985,4.037 -153.694,14.776 -153.694,14.776c-28.016,2.693 -55.662,7.561 -82.683,14.559c-50.572,13.097 -134.942,34.946 -172.882,44.772c-11.13,2.882 -17.864,13.654 -15.656,25.041c0,0.002 0.001,0.003 0.001,0.005c1.243,6.407 5.177,12.127 10.815,15.722c5.638,3.596 12.443,4.724 18.705,3.103c39.974,-10.353 119.365,-30.913 167.781,-43.451c27.02,-6.997 54.666,-11.865 82.682,-14.559c0,0 108.452,-10.426 152.709,-14.681c4.756,-0.457 8.999,-2.867 11.701,-6.645c2.702,-3.778 3.618,-8.581 2.524,-13.246c-0.894,-3.815 -1.829,-7.806 -2.698,-11.51Zm-19.759,-84.304c-2.039,-8.697 -10.438,-14.738 -19.306,-13.885c-42.455,4.081 -156.374,15.033 -156.374,15.033c-28.016,2.694 -55.662,7.561 -82.683,14.559c-50.572,13.097 -134.942,34.946 -172.882,44.772c-11.13,2.882 -17.864,13.654 -15.656,25.042c0.001,0.001 0.001,0.003 0.001,0.004c1.243,6.407 5.177,12.127 10.815,15.723c5.638,3.595 12.443,4.723 18.705,3.102c39.974,-10.352 119.365,-30.912 167.781,-43.451c27.02,-6.997 54.666,-11.865 82.683,-14.559c-0,0 110.624,-10.635 155.388,-14.938c4.757,-0.458 8.999,-2.867 11.702,-6.645c2.702,-3.779 3.617,-8.582 2.524,-13.246c-0.895,-3.816 -1.83,-7.806 -2.698,-11.511Zm-21.228,-90.566c-2.038,-8.697 -10.437,-14.738 -19.305,-13.886c-41.9,4.028 -153.212,14.73 -153.212,14.73c-28.017,2.693 -55.663,7.561 -82.683,14.559c-50.573,13.097 -134.942,34.946 -172.883,44.771c-11.129,2.883 -17.864,13.654 -15.655,25.042c-0,0.002 0,0.003 0.001,0.005c1.242,6.407 5.177,12.127 10.815,15.722c5.637,3.595 12.443,4.724 18.704,3.102c39.974,-10.352 119.366,-30.912 167.781,-43.45c27.021,-6.998 54.667,-11.866 82.683,-14.559c0,-0 108.062,-10.389 152.227,-14.635c4.756,-0.457 8.999,-2.866 11.701,-6.645c2.702,-3.778 3.618,-8.581 2.524,-13.246c-0.894,-3.815 -1.829,-7.806 -2.698,-11.51Zm-21.227,-90.567c-2.039,-8.697 -10.438,-14.738 -19.306,-13.885c-41.34,3.974 -150.05,14.425 -150.05,14.425c-28.016,2.694 -55.662,7.562 -82.683,14.559c-50.572,13.097 -134.942,34.946 -172.882,44.772c-11.13,2.882 -17.864,13.654 -15.656,25.042c0,0.001 0.001,0.003 0.001,0.004c1.242,6.407 5.177,12.127 10.815,15.723c5.638,3.595 12.443,4.724 18.705,3.102c39.974,-10.352 119.365,-30.912 167.781,-43.451c27.02,-6.997 54.666,-11.865 82.682,-14.558c0,-0 105.505,-10.143 149.065,-14.331c4.757,-0.458 9,-2.867 11.702,-6.645c2.702,-3.779 3.617,-8.582 2.524,-13.246c-0.895,-3.816 -1.83,-7.806 -2.698,-11.511Z" style="fill:#f8b423;"/><clipPath id="_clip2"><path d="M796.277,863.204c2.038,8.698 10.437,14.738 19.305,13.886c42.084,-4.046 154.254,-14.83 154.254,-14.83l0.822,3.372c45.031,184.717 -111.644,250 -204.958,327.476c-21.718,18.032 -6.919,124.791 20.099,160.991c37.904,50.785 42.58,140.406 -3.708,153.125l-222.704,61.192c-61.525,16.906 -108.308,-0.21 -134.079,-29.599c-40.892,-46.633 -40.383,-105.827 -29.485,-141.751c-30.486,-89.884 -33.282,-143.464 -75.265,-160.369c-0,0 -116.57,-40.282 -163.594,-186.348c-47.025,-146.066 -147.999,-622.351 -147.999,-622.351c-37.561,-147.331 46.044,-326.914 192.086,-385.275c65.108,-26.019 160.987,-50.684 328.648,-40.287c156.04,14.268 250.712,82.801 277.588,193.043c-0,0 0,0.003 0.001,0.008c0.706,2.895 0.158,5.887 -1.511,8.244c-1.669,2.357 -4.304,3.861 -7.261,4.146c-28.008,2.692 -99.852,9.599 -133.933,12.876c-4.757,0.457 -8.999,2.866 -11.702,6.645c-2.702,3.778 -3.617,8.581 -2.524,13.246c0.895,3.815 1.83,7.806 2.698,11.51c2.039,8.697 10.438,14.738 19.306,13.886c38.626,-3.714 135.164,-12.995 135.164,-12.995c7.633,-0.734 14.875,4.428 16.697,11.902c1.257,5.157 2.709,11.113 4.021,16.496c0.989,4.058 0.22,8.251 -2.119,11.555c-2.338,3.303 -6.032,5.412 -10.176,5.81c-0,0 -90.326,8.684 -130.138,12.511c-4.756,0.457 -8.999,2.867 -11.701,6.645c-2.702,3.779 -3.617,8.581 -2.524,13.246c0.894,3.816 1.83,7.806 2.698,11.511c2.038,8.697 10.437,14.738 19.305,13.885c38.781,-3.728 135.996,-13.074 135.996,-13.074c7.633,-0.734 14.875,4.428 16.697,11.902c1.257,5.156 2.709,11.113 4.021,16.496c0.989,4.057 0.22,8.251 -2.118,11.554c-2.339,3.303 -6.033,5.412 -10.177,5.811c0,-0 -90.988,8.747 -130.969,12.591c-4.757,0.457 -8.999,2.866 -11.702,6.645c-2.702,3.778 -3.617,8.581 -2.524,13.246c0.895,3.815 1.83,7.806 2.698,11.51c2.039,8.697 10.438,14.738 19.306,13.886c38.935,-3.744 136.827,-13.155 136.827,-13.155c7.633,-0.734 14.875,4.428 16.697,11.902c0.801,3.286 1.667,6.842 2.496,10.239c0.989,4.058 0.22,8.251 -2.119,11.554c-2.339,3.303 -6.032,5.412 -10.176,5.811c-0,-0 -91.605,8.806 -131.744,12.665c-4.756,0.457 -8.999,2.867 -11.701,6.645c-2.702,3.779 -3.617,8.581 -2.524,13.246c0.894,3.815 1.83,7.806 2.698,11.51c2.038,8.698 10.437,14.739 19.306,13.886c39.078,-3.757 137.6,-13.229 137.6,-13.229c7.634,-0.733 14.875,4.428 16.697,11.902c1.416,5.809 3.092,12.681 4.574,18.762c0.989,4.058 0.22,8.251 -2.119,11.554c-2.339,3.303 -6.032,5.412 -10.176,5.811c-0,-0 -92.284,8.872 -132.596,12.747c-4.756,0.457 -8.999,2.867 -11.701,6.645c-2.702,3.778 -3.618,8.581 -2.524,13.246c0.894,3.815 1.829,7.806 2.698,11.51c2.038,8.698 10.437,14.739 19.306,13.886c39.236,-3.772 138.453,-13.311 138.453,-13.311c7.633,-0.733 14.875,4.428 16.697,11.902c0.594,2.438 1.22,5.007 1.831,7.514c0.989,4.057 0.221,8.251 -2.118,11.554c-2.339,3.303 -6.033,5.412 -10.177,5.81c0,0 -92.881,8.93 -133.344,12.82c-4.757,0.457 -9,2.867 -11.702,6.645c-2.702,3.778 -3.617,8.581 -2.524,13.246c0.894,3.815 1.83,7.806 2.698,11.51c2.038,8.698 10.437,14.738 19.306,13.886c39.374,-3.786 139.202,-13.383 139.202,-13.383c7.633,-0.734 14.875,4.428 16.697,11.902c1.283,5.264 2.771,11.368 4.111,16.866c0.99,4.058 0.221,8.251 -2.118,11.555c-2.339,3.303 -6.032,5.412 -10.177,5.81c0,0 -93.547,8.994 -134.179,12.9c-4.756,0.457 -8.999,2.866 -11.702,6.645c-2.702,3.778 -3.617,8.581 -2.524,13.246c0.895,3.815 1.83,7.806 2.698,11.51c2.039,8.697 10.438,14.738 19.306,13.886c39.528,-3.8 140.037,-13.463 140.037,-13.463c7.633,-0.734 14.875,4.428 16.697,11.902c0.494,2.024 1.007,4.132 1.513,6.206c0.989,4.057 0.22,8.251 -2.119,11.554c-2.339,3.303 -6.032,5.412 -10.176,5.81c-0,0 -94.137,9.05 -134.917,12.971c-4.756,0.457 -8.999,2.867 -11.701,6.645c-2.702,3.778 -3.617,8.581 -2.524,13.246c0.894,3.815 1.83,7.806 2.698,11.51Zm-54.245,-9.336c-2.038,-8.698 -10.437,-14.738 -19.305,-13.886c-41.89,4.027 -153.154,14.724 -153.154,14.724c-28.016,2.693 -55.662,7.561 -82.682,14.559c-50.573,13.097 -134.942,34.946 -172.883,44.771c-11.129,2.883 -17.864,13.655 -15.655,25.042c-0,0.002 0,0.003 0.001,0.005c1.242,6.407 5.177,12.127 10.815,15.722c5.637,3.596 12.443,4.724 18.704,3.102c39.974,-10.352 119.365,-30.912 167.781,-43.45c27.021,-6.998 54.667,-11.865 82.683,-14.559c-0,0 108.014,-10.384 152.168,-14.629c4.756,-0.457 8.999,-2.867 11.701,-6.645c2.702,-3.778 3.618,-8.581 2.524,-13.246c-0.894,-3.815 -1.829,-7.806 -2.698,-11.51Zm-18.813,-80.268c-2.039,-8.697 -10.438,-14.738 -19.306,-13.885c-42.044,4.042 -154.032,14.808 -154.032,14.808c-28.017,2.694 -55.663,7.562 -82.683,14.559c-50.573,13.097 -134.942,34.946 -172.883,44.772c-11.129,2.882 -17.864,13.654 -15.655,25.042c0,0.001 0,0.003 0.001,0.004c1.242,6.407 5.177,12.127 10.815,15.723c5.637,3.595 12.443,4.724 18.705,3.102c39.973,-10.352 119.365,-30.912 167.78,-43.451c27.021,-6.997 54.667,-11.865 82.683,-14.559c0,0 108.726,-10.452 153.047,-14.713c4.757,-0.457 8.999,-2.867 11.702,-6.645c2.702,-3.779 3.617,-8.581 2.524,-13.246c-0.895,-3.816 -1.83,-7.806 -2.698,-11.511Zm-21.314,-90.936c-2.039,-8.698 -10.438,-14.739 -19.306,-13.886c-42.166,4.054 -154.724,14.875 -154.724,14.875c-28.017,2.693 -55.662,7.561 -82.683,14.559c-50.573,13.097 -134.942,34.946 -172.882,44.771c-11.13,2.883 -17.864,13.654 -15.656,25.042c0,0.002 0.001,0.003 0.001,0.005c1.242,6.407 5.177,12.127 10.815,15.722c5.638,3.595 12.443,4.724 18.705,3.102c39.974,-10.352 119.365,-30.912 167.781,-43.45c27.02,-6.998 54.666,-11.866 82.682,-14.559c0,0 109.287,-10.506 153.739,-14.78c4.756,-0.457 8.999,-2.867 11.701,-6.645c2.703,-3.778 3.618,-8.581 2.524,-13.246c-0.894,-3.815 -1.829,-7.806 -2.697,-11.51Zm-19.121,-81.576c-2.038,-8.698 -10.437,-14.738 -19.305,-13.886c-42.567,4.092 -157.013,15.095 -157.013,15.095c-28.016,2.693 -55.662,7.561 -82.682,14.559c-50.573,13.097 -134.943,34.946 -172.883,44.772c-11.129,2.882 -17.864,13.654 -15.655,25.041c-0,0.002 0,0.003 0,0.005c1.243,6.407 5.177,12.127 10.815,15.722c5.638,3.596 12.443,4.724 18.705,3.103c39.974,-10.353 119.365,-30.913 167.781,-43.451c27.021,-6.998 54.666,-11.865 82.683,-14.559c-0,0 111.142,-10.685 156.027,-15c4.756,-0.457 8.999,-2.867 11.701,-6.645c2.702,-3.778 3.618,-8.581 2.524,-13.246c-0.894,-3.815 -1.829,-7.806 -2.698,-11.51Zm-21.759,-92.834c-2.038,-8.697 -10.437,-14.738 -19.305,-13.886c-41.985,4.037 -153.694,14.776 -153.694,14.776c-28.016,2.693 -55.662,7.561 -82.683,14.559c-50.572,13.097 -134.942,34.946 -172.882,44.772c-11.13,2.882 -17.864,13.654 -15.656,25.041c0,0.002 0.001,0.003 0.001,0.005c1.243,6.407 5.177,12.127 10.815,15.722c5.638,3.596 12.443,4.724 18.705,3.103c39.974,-10.353 119.365,-30.913 167.781,-43.451c27.02,-6.997 54.666,-11.865 82.682,-14.559c0,0 108.452,-10.426 152.709,-14.681c4.756,-0.457 8.999,-2.867 11.701,-6.645c2.702,-3.778 3.618,-8.581 2.524,-13.246c-0.894,-3.815 -1.829,-7.806 -2.698,-11.51Zm-19.759,-84.304c-2.039,-8.697 -10.438,-14.738 -19.306,-13.885c-42.455,4.081 -156.374,15.033 -156.374,15.033c-28.016,2.694 -55.662,7.561 -82.683,14.559c-50.572,13.097 -134.942,34.946 -172.882,44.772c-11.13,2.882 -17.864,13.654 -15.656,25.042c0.001,0.001 0.001,0.003 0.001,0.004c1.243,6.407 5.177,12.127 10.815,15.723c5.638,3.595 12.443,4.723 18.705,3.102c39.974,-10.352 119.365,-30.912 167.781,-43.451c27.02,-6.997 54.666,-11.865 82.683,-14.559c-0,0 110.624,-10.635 155.388,-14.938c4.757,-0.458 8.999,-2.867 11.702,-6.645c2.702,-3.779 3.617,-8.582 2.524,-13.246c-0.895,-3.816 -1.83,-7.806 -2.698,-11.511Zm-21.228,-90.566c-2.038,-8.697 -10.437,-14.738 -19.305,-13.886c-41.9,4.028 -153.212,14.73 -153.212,14.73c-28.017,2.693 -55.663,7.561 -82.683,14.559c-50.573,13.097 -134.942,34.946 -172.883,44.771c-11.129,2.883 -17.864,13.654 -15.655,25.042c-0,0.002 0,0.003 0.001,0.005c1.242,6.407 5.177,12.127 10.815,15.722c5.637,3.595 12.443,4.724 18.704,3.102c39.974,-10.352 119.366,-30.912 167.781,-43.45c27.021,-6.998 54.667,-11.866 82.683,-14.559c0,-0 108.062,-10.389 152.227,-14.635c4.756,-0.457 8.999,-2.866 11.701,-6.645c2.702,-3.778 3.618,-8.581 2.524,-13.246c-0.894,-3.815 -1.829,-7.806 -2.698,-11.51Zm-21.227,-90.567c-2.039,-8.697 -10.438,-14.738 -19.306,-13.885c-41.34,3.974 -150.05,14.425 -150.05,14.425c-28.016,2.694 -55.662,7.562 -82.683,14.559c-50.572,13.097 -134.942,34.946 -172.882,44.772c-11.13,2.882 -17.864,13.654 -15.656,25.042c0,0.001 0.001,0.003 0.001,0.004c1.242,6.407 5.177,12.127 10.815,15.723c5.638,3.595 12.443,4.724 18.705,3.102c39.974,-10.352 119.365,-30.912 167.781,-43.451c27.02,-6.997 54.666,-11.865 82.682,-14.558c0,-0 105.505,-10.143 149.065,-14.331c4.757,-0.458 9,-2.867 11.702,-6.645c2.702,-3.779 3.617,-8.582 2.524,-13.246c-0.895,-3.816 -1.83,-7.806 -2.698,-11.511Z"/></clipPath><g clip-path="url(#_clip2)"><path d="M828.208,1168l-58.647,21.943c0,-0 -100.253,63.99 -190.253,80.44c-90.001,16.449 131.606,24.151 190.253,86.215c58.647,62.063 49.44,140.489 12.53,150.631c-36.91,10.142 150.648,92.984 159.434,23.381c8.785,-69.603 -113.317,-362.61 -113.317,-362.61Z" style="fill:#ffd24f;"/><path d="M838.633,1193.54c-69.046,37.198 -150.35,62.201 -238.652,80.242c-0.753,0.154 -1.29,0.82 -1.279,1.588c0.01,0.768 0.565,1.42 1.322,1.552c31.872,5.783 146.236,28.919 198.142,71.335c60.642,49.556 40.467,-154.717 40.467,-154.717Z" style="fill:#fffaec;"/><path d="M805.027,0c-403.595,93.466 -463.327,1216.55 228.102,1073.47l-228.102,-1073.47Z" style="fill:#ffd24f;"/><path d="M805.027,0c0,0 -479.605,617.806 208.898,878.449l-208.898,-878.449Z" style="fill:#fffaec;"/><path d="M97.182,-0l43.059,76.291c-0,-0 -74.276,74.342 -26.788,235.528c47.489,161.187 172.635,702.401 172.635,702.401c0,-0 36.056,206.979 200.497,211.183c10.121,0.259 14.063,13.189 18.527,29.085l49.601,176.624c-0,0 32.436,104.706 -16.854,141.821c-49.291,37.116 -358.599,0 -358.599,0c-0,0 -436.512,-1493.11 -82.078,-1572.93" style="fill:#1d79d2;"/><path d="M111.171,139.254l18.863,-11.988c45.978,-29.315 108.085,-22.29 149.633,16.924c9.5,9.334 18.104,20.396 24.698,33.732c30.92,62.529 158.719,614.335 193.825,767.301c10.542,46.071 3.946,93.492 -18.565,133.466c-19.892,35.326 -54.159,71.614 -113.186,91.174c-60.255,-62.592 -76.465,-155.643 -76.465,-155.643c0,-0 -125.146,-541.214 -172.635,-702.401c-22.618,-76.773 -17.614,-133.844 -6.168,-172.565Z" style="fill:#5babf4;"/><path d="M395.823,1397.07c-141.338,147.021 -98.243,-171.308 -98.243,-171.308c-0,-0 91.739,46.673 178.21,11.23c20.559,-8.427 -26.186,104.135 -79.967,160.078Z" style="fill:#0d5fb7;"/><clipPath id="_clip3"><path d="M395.823,1397.07c-141.338,147.021 -98.243,-171.308 -98.243,-171.308c-0,-0 91.739,46.673 178.21,11.23c20.559,-8.427 -26.186,104.135 -79.967,160.078Z"/></clipPath><g clip-path="url(#_clip3)"><path d="M306.96,1306.12l18.944,-69.131c0,0 82.942,16.524 124.037,8.262c0,0 -42.884,103.062 -142.981,60.869Z" style="fill:#00356b;"/></g><path d="M77.464,86.811l49.04,0c0,0 -71.57,97.815 -37.028,230.206c34.543,132.392 163.424,717.921 163.424,717.921c-0,-0 20.831,88.916 88.187,139.534c0.927,0.688 1.415,1.819 1.279,2.966c-0.136,1.146 -0.876,2.132 -1.938,2.584c-9.011,3.84 -27.39,11.659 -36.696,15.618c-3.647,1.552 -7.764,1.576 -11.429,0.066c-20.803,-9.108 -92.775,-45.265 -127.432,-123.334c-40.772,-91.845 -360.843,-740.73 -87.407,-985.561Z" style="fill:#0d5fb7;"/><path d="M-205.62,252.154l272.008,-101.003c-0,-0 -52.327,97.519 -0,297.531c52.326,200.011 105.358,290.832 91.428,389.791c-9.223,65.521 58.333,187.343 36.131,217.659c-22.201,30.316 -193.947,-2.147 -193.947,-216.23c0,-214.083 -205.62,-587.748 -205.62,-587.748Z" style="fill:#00356b;"/><path d="M524.11,1206.6l26.514,10.162c-0,-0 173.075,-62.435 151.972,-222.638c-7.439,-56.47 -64.971,-46.541 -55.552,11.002c5.293,32.334 -25.313,143.075 -122.934,201.474Zm250.198,3.568c2.908,-9.121 9.669,-26.199 23.048,-41.557c48.335,-55.488 93.118,-136.49 84.505,-209.471c-3.878,-32.863 39.527,-39.914 40.866,-2.628c5.571,155.184 -123.807,231.8 -148.419,253.656c-1.308,4.101 -1.836,6.594 -1.836,6.594c-3.6,-0.556 -2.537,-2.711 1.836,-6.594Zm-165.599,6.594l36.372,-0c-0,-0 157.722,-43.055 133.787,-245.884c-4.392,-37.212 -52.964,-29.706 -49.086,3.158c12.068,102.268 -23.452,184.326 -121.073,242.726Zm69.132,-0l22.668,-0c0,-0 178.235,-68.214 152.369,-253.979c-5.174,-37.154 -44.744,-30.235 -40.866,2.629c12.068,102.268 -36.55,192.95 -134.171,251.35Zm178.354,-14.426c2.376,-9.121 7.933,-26.199 19.081,-41.557c40.279,-55.488 77.353,-136.489 69.497,-209.47c-3.538,-32.863 32.983,-39.915 34.417,-2.629c5.968,155.184 -102.433,231.8 -122.995,253.656c-1.069,4.102 -1.494,6.594 -1.494,6.594c-3.038,-0.556 -2.16,-2.711 1.494,-6.594Zm-429.962,-19.953l54.175,24.217c-0,0 152.074,-63.821 128.167,-209.873c-9.216,-56.303 -79.246,-36.503 -76.903,8.399c1.698,32.529 -7.817,118.857 -105.439,177.257Z" style="fill:#00356b;"/><clipPath id="_clip4"><path d="M524.11,1206.6l26.514,10.162c-0,-0 173.075,-62.435 151.972,-222.638c-7.439,-56.47 -64.971,-46.541 -55.552,11.002c5.293,32.334 -25.313,143.075 -122.934,201.474Zm250.198,3.568c2.908,-9.121 9.669,-26.199 23.048,-41.557c48.335,-55.488 93.118,-136.49 84.505,-209.471c-3.878,-32.863 39.527,-39.914 40.866,-2.628c5.571,155.184 -123.807,231.8 -148.419,253.656c-1.308,4.101 -1.836,6.594 -1.836,6.594c-3.6,-0.556 -2.537,-2.711 1.836,-6.594Zm-165.599,6.594l36.372,-0c-0,-0 157.722,-43.055 133.787,-245.884c-4.392,-37.212 -52.964,-29.706 -49.086,3.158c12.068,102.268 -23.452,184.326 -121.073,242.726Zm69.132,-0l22.668,-0c0,-0 178.235,-68.214 152.369,-253.979c-5.174,-37.154 -44.744,-30.235 -40.866,2.629c12.068,102.268 -36.55,192.95 -134.171,251.35Zm178.354,-14.426c2.376,-9.121 7.933,-26.199 19.081,-41.557c40.279,-55.488 77.353,-136.489 69.497,-209.47c-3.538,-32.863 32.983,-39.915 34.417,-2.629c5.968,155.184 -102.433,231.8 -122.995,253.656c-1.069,4.102 -1.494,6.594 -1.494,6.594c-3.038,-0.556 -2.16,-2.711 1.494,-6.594Zm-429.962,-19.953l54.175,24.217c-0,0 152.074,-63.821 128.167,-209.873c-9.216,-56.303 -79.246,-36.503 -76.903,8.399c1.698,32.529 -7.817,118.857 -105.439,177.257Z"/></clipPath><g clip-path="url(#_clip4)"><path d="M485.638,1104.49l118.002,-27.257l-58.634,115.354c0,0 82.958,-7.503 146.288,-104.191l-31.484,90.631c0,0 73.225,-24.387 113.604,-101.794l-24.645,82.558c-0,0 60.28,-25.685 96.686,-94.258l-11.838,54.964c-0,-0 44.776,-9.762 85.552,-110.623l-25.286,169.153l-271.136,95.038c-0,-0 -231.575,-48.682 -233.286,-81.478c-1.712,-32.796 96.177,-88.097 96.177,-88.097Z" style="fill:#0d5fb7;"/></g><path d="M611.826,1357.54c-1.023,0.168 -1.916,0.787 -2.431,1.686c-0.516,0.899 -0.599,1.983 -0.227,2.95c8.095,22.198 43.938,132.626 -17.667,197.419l120.817,-33.197c0,0 50.506,-38.921 -9.038,-182.429c-0.321,-0.775 -1.133,-1.226 -1.961,-1.091c-10.198,1.671 -72.689,11.909 -89.493,14.662Z" style="fill:#0d5fb7;"/><clipPath id="_clip5"><path d="M611.826,1357.54c-1.023,0.168 -1.916,0.787 -2.431,1.686c-0.516,0.899 -0.599,1.983 -0.227,2.95c8.095,22.198 43.938,132.626 -17.667,197.419l120.817,-33.197c0,0 50.506,-38.921 -9.038,-182.429c-0.321,-0.775 -1.133,-1.226 -1.961,-1.091c-10.198,1.671 -72.689,11.909 -89.493,14.662Z"/></clipPath><g clip-path="url(#_clip5)"><path d="M584.57,1384.43c-1.022,0.168 -1.915,0.787 -2.431,1.686c-0.515,0.899 -0.599,1.983 -0.227,2.95c8.095,22.198 43.938,132.626 -17.666,197.419l120.816,-33.197c0,0 50.506,-38.921 -9.037,-182.429c-0.322,-0.775 -1.134,-1.227 -1.962,-1.091c-10.197,1.671 -72.689,11.909 -89.493,14.662Z" style="fill:#00356b;"/></g><path d="M171.746,80.266c-0,-0 97.099,-11.809 138.396,51.495c29.727,45.57 53.465,68.259 80.669,53.643c23.965,-12.875 12.738,-41.681 -3.625,-69.471c-16.363,-27.79 -34.046,-69.08 -168.54,-72.025l-46.9,36.358Zm79.163,-46.131c-0,0 125.201,-8.347 166.497,54.957c29.727,45.57 32.933,88.403 67.43,80.222c26.648,-6.32 12.406,-48.03 -3.956,-75.82c-16.363,-27.79 -43.485,-77.491 -177.98,-80.436l-51.991,21.077Zm119.855,-30.526c-0,0 93.725,7.46 135.021,70.764c29.727,45.57 27.137,91.251 61.635,83.07c26.648,-6.32 15.465,-47.912 -4.335,-83.07c-15.813,-28.078 -43.479,-70.764 -139.269,-74.373l-53.052,3.609Zm169.735,-8.345l52.95,-3.602c41.095,8.338 91.882,48.001 105.462,73.926c17.06,32.567 32.858,74.574 15.702,79.218c-23.443,6.345 -25.841,-39.613 -55.569,-85.182c-40.251,-61.703 -114.757,-64.26 -118.501,-64.35c51.671,11.719 75.681,47.51 87.398,69.878c17.06,32.567 36.354,78.163 19.76,84.305c-33.048,12.232 -38.638,-44.264 -68.366,-89.833c-41.296,-63.305 -118.648,-64.353 -118.648,-64.353l53.053,-3.609c9.655,0.494 18.552,1.744 26.759,3.602Z" style="fill:#00356b;"/><clipPath id="_clip6"><path d="M171.746,80.266c-0,-0 97.099,-11.809 138.396,51.495c29.727,45.57 53.465,68.259 80.669,53.643c23.965,-12.875 12.738,-41.681 -3.625,-69.471c-16.363,-27.79 -34.046,-69.08 -168.54,-72.025l-46.9,36.358Zm79.163,-46.131c-0,0 125.201,-8.347 166.497,54.957c29.727,45.57 32.933,88.403 67.43,80.222c26.648,-6.32 12.406,-48.03 -3.956,-75.82c-16.363,-27.79 -43.485,-77.491 -177.98,-80.436l-51.991,21.077Zm119.855,-30.526c-0,0 93.725,7.46 135.021,70.764c29.727,45.57 27.137,91.251 61.635,83.07c26.648,-6.32 15.465,-47.912 -4.335,-83.07c-15.813,-28.078 -43.479,-70.764 -139.269,-74.373l-53.052,3.609Zm169.735,-8.345l52.95,-3.602c41.095,8.338 91.882,48.001 105.462,73.926c17.06,32.567 32.858,74.574 15.702,79.218c-23.443,6.345 -25.841,-39.613 -55.569,-85.182c-40.251,-61.703 -114.757,-64.26 -118.501,-64.35c51.671,11.719 75.681,47.51 87.398,69.878c17.06,32.567 36.354,78.163 19.76,84.305c-33.048,12.232 -38.638,-44.264 -68.366,-89.833c-41.296,-63.305 -118.648,-64.353 -118.648,-64.353l53.053,-3.609c9.655,0.494 18.552,1.744 26.759,3.602Z"/></clipPath><g clip-path="url(#_clip6)"><path d="M369.174,88.892c-67.046,-1.769 -120.763,6.216 -155.664,27.969l-67.962,-27.969l33.581,-75.834c-0,0 388.817,-73.643 477.253,-21.396c28.327,39.501 56.421,79.074 63.514,125.199c-0,0 -34.562,-65.926 -80.928,-81.208l0.563,53.239c0,0 -59.804,-75.834 -112.627,-75.834l56.033,115.597c0,-0 -41.969,-115.63 -137.65,-104.316l47.138,92.522c-0,0 -37.283,-92.728 -155.14,-75.35l31.889,47.381Z" style="fill:#0d5fb7;"/><path d="M194.773,118.783c0,-0 464.506,-56.043 596.064,17.611c131.557,73.655 -139.125,324.51 -596.064,-17.611Z" style="fill:#001e3f;"/></g><path d="M442.332,1386.3c23.602,-0 46.147,32.208 50.315,71.879c4.168,39.671 -11.61,71.879 -35.212,71.879c-23.602,0 -46.147,-32.208 -50.315,-71.879c-4.168,-39.671 11.61,-71.879 35.212,-71.879Z" style="fill:#00356b;"/><clipPath id="_clip7"><path d="M442.332,1386.3c23.602,-0 46.147,32.208 50.315,71.879c4.168,39.671 -11.61,71.879 -35.212,71.879c-23.602,0 -46.147,-32.208 -50.315,-71.879c-4.168,-39.671 11.61,-71.879 35.212,-71.879Z"/></clipPath><g clip-path="url(#_clip7)"><path d="M370.166,1355.16l-15.247,0l138.28,182.437l15.247,0l-138.28,-182.437Z" style="fill:#000f2d;"/></g><path d="M408.458,266.829l-41.832,-0l143.374,611.62l41.832,0l-143.374,-611.62Z" style="fill:#ff611a;"/><path d="M437.747,205.697c-4.885,1.632 -7.807,6.628 -6.835,11.687c8.077,42.06 42.425,220.77 42.425,220.77c-0,-0 10.699,-147.762 107.381,-265.125c-0,-0 -67.397,7.545 -142.971,32.668Z" style="fill:#fffaec;"/></g></g><g><path d="M2982.67,345.797l-103.788,240.67c-10.535,26.132 -23.562,44.537 -39.08,55.215c-15.519,10.678 -34.24,16.016 -56.165,16.016c-11.959,0 -23.776,-1.826 -35.45,-5.479c-11.675,-3.653 -21.214,-8.711 -28.617,-15.173l24.345,-46.786c5.126,4.496 11.034,8.009 17.726,10.538c6.691,2.529 13.311,3.793 19.86,3.793c9.112,-0 16.515,-2.178 22.21,-6.533c5.695,-4.355 10.82,-11.591 15.376,-21.707l0.854,-2.107l-99.517,-228.447l68.765,0l64.494,153.843l64.92,-153.843l64.067,0Zm-861.481,230.133c-19.077,-0 -37.728,-2.318 -55.951,-6.955c-18.224,-4.636 -32.745,-10.467 -43.566,-17.491l22.21,-47.207c10.251,6.463 22.637,11.731 37.159,15.806c14.521,4.074 28.758,6.111 42.711,6.111c28.189,0 42.284,-6.884 42.284,-20.653c-0,-6.463 -3.844,-11.099 -11.532,-13.909c-7.688,-2.81 -19.505,-5.198 -35.45,-7.165c-18.793,-2.81 -34.312,-6.041 -46.555,-9.694c-12.244,-3.653 -22.851,-10.116 -31.82,-19.389c-8.969,-9.273 -13.454,-22.479 -13.454,-39.62c-0,-14.33 4.2,-27.045 12.6,-38.144c8.399,-11.099 20.643,-19.74 36.731,-25.922c16.088,-6.182 35.094,-9.273 57.019,-9.273c16.23,0 32.389,1.757 48.477,5.269c16.088,3.512 29.4,8.36 39.935,14.541l-22.21,46.786c-20.216,-11.24 -42.284,-16.86 -66.202,-16.86c-14.237,0 -24.914,1.967 -32.033,5.901c-7.118,3.934 -10.678,8.992 -10.678,15.173c0,7.025 3.844,11.943 11.532,14.753c7.688,2.809 19.932,5.479 36.732,8.008c18.793,3.091 34.169,6.392 46.128,9.905c11.959,3.512 22.352,9.905 31.179,19.177c8.827,9.273 13.24,22.199 13.24,38.777c0,14.05 -4.271,26.554 -12.813,37.513c-8.542,10.958 -21,19.458 -37.372,25.5c-16.373,6.041 -35.806,9.062 -58.301,9.062Zm-248.151,-233.505c35.593,0 62.928,8.36 82.005,25.079c19.078,16.719 28.617,41.938 28.617,75.657l-0,129.397l-62.358,-0l-0,-28.24c-12.529,21.075 -35.878,31.612 -70.046,31.612c-17.654,-0 -32.959,-2.951 -45.915,-8.851c-12.955,-5.901 -22.85,-14.05 -29.684,-24.447c-6.834,-10.396 -10.251,-22.198 -10.251,-35.405c0,-21.074 8.044,-37.653 24.132,-49.735c16.088,-12.083 40.932,-18.124 74.531,-18.124l52.962,-0c-0,-14.331 -4.414,-25.36 -13.241,-33.087c-8.827,-7.727 -22.067,-11.591 -39.721,-11.591c-12.244,-0 -24.274,1.897 -36.091,5.69c-11.817,3.793 -21.854,8.922 -30.111,15.384l-23.918,-45.942c12.528,-8.711 27.548,-15.454 45.06,-20.231c17.511,-4.777 35.521,-7.166 54.029,-7.166Zm629.133,3.372l0,226.761l-63.212,-0l-0,-26.975c-8.827,9.834 -19.362,17.351 -31.606,22.549c-12.244,5.199 -25.484,7.798 -39.721,7.798c-30.183,-0 -54.101,-8.57 -71.755,-25.711c-17.654,-17.14 -26.481,-42.57 -26.481,-76.289l0,-128.133l66.629,0l0,118.438c0,36.529 15.519,54.794 46.555,54.794c15.946,-0 28.759,-5.128 38.44,-15.384c9.681,-10.257 14.522,-25.5 14.522,-45.732l0,-112.116l66.629,0Zm-759.828,114.224c-0,0.843 -0.428,6.743 -1.282,17.702l-173.834,0c3.133,14.05 10.536,25.149 22.21,33.298c11.674,8.148 26.196,12.223 43.565,12.223c11.959,-0 22.566,-1.756 31.82,-5.269c9.254,-3.512 17.868,-9.062 25.84,-16.649l35.45,37.934c-21.64,24.447 -53.246,36.67 -94.818,36.67c-25.911,-0 -48.833,-4.988 -68.765,-14.963c-19.932,-9.975 -35.308,-23.814 -46.128,-41.517c-10.82,-17.702 -16.23,-37.793 -16.23,-60.272c0,-22.199 5.339,-42.219 16.017,-60.062c10.678,-17.843 25.342,-31.753 43.992,-41.728c18.651,-9.975 39.508,-14.963 62.572,-14.963c22.494,0 42.853,4.777 61.076,14.331c18.224,9.554 32.532,23.252 42.925,41.095c10.393,17.843 15.59,38.566 15.59,62.17Zm-597.527,-126.868l-95.673,-0l0,-55.637l260.537,0l0,55.637l-95.673,-0l0,239.405l-69.191,-0l-0,-239.405Zm255.839,42.57c7.972,-10.959 18.721,-19.248 32.246,-24.868c13.525,-5.62 29.115,-8.43 46.769,-8.43l-0,60.695c-7.403,-0.562 -12.386,-0.843 -14.949,-0.843c-19.078,-0 -34.026,5.268 -44.847,15.806c-10.82,10.537 -16.23,26.343 -16.23,47.417l0,107.058l-66.629,-0l0,-226.761l63.64,0l-0,29.926Zm1227.09,-0c7.972,-10.959 18.721,-19.248 32.246,-24.868c13.526,-5.62 29.115,-8.43 46.769,-8.43l-0,60.695c-7.403,-0.562 -12.386,-0.843 -14.949,-0.843c-19.078,-0 -34.026,5.268 -44.846,15.806c-10.821,10.537 -16.231,26.343 -16.231,47.417l0,107.058l-66.629,-0l0,-226.761l63.64,0l-0,29.926Zm-759.829,155.951c11.389,-0 21.498,-2.6 30.325,-7.798c8.827,-5.198 15.091,-12.855 18.793,-22.971l-0,-23.182l-45.701,0c-27.335,0 -41.003,8.851 -41.003,26.554c0,8.43 3.346,15.103 10.037,20.021c6.692,4.917 15.875,7.376 27.549,7.376Zm-244.734,-139.513c-15.091,0 -27.762,4.215 -38.013,12.645c-10.251,8.429 -16.515,19.95 -18.793,34.562l113.184,-0c-2.278,-14.331 -8.542,-25.781 -18.792,-34.352c-10.251,-8.57 -22.78,-12.855 -37.586,-12.855Z" style="fill:#0046bf;fill-rule:nonzero;"/><path d="M2897.24,1195.82c-33.839,-0 -67.195,-3.578 -100.068,-10.734c-32.872,-7.156 -59.461,-16.458 -79.764,-27.908l44.958,-106.622c18.37,10.972 40.124,19.559 65.262,25.761c25.138,6.202 49.55,9.302 73.238,9.302c18.853,0 32.027,-1.55 39.52,-4.651c7.493,-3.101 11.239,-7.752 11.239,-13.954c0,-6.202 -4.713,-10.495 -14.14,-12.88c-9.427,-2.386 -24.775,-4.771 -46.046,-7.156c-32.389,-3.817 -59.944,-8.707 -82.665,-14.67c-22.72,-5.963 -42.662,-17.532 -59.823,-34.706c-17.161,-17.174 -25.742,-41.742 -25.742,-73.705c-0,-25.284 7.735,-47.945 23.204,-67.981c15.469,-20.036 38.553,-36.018 69.25,-47.944c30.697,-11.927 67.558,-17.89 110.583,-17.89c29.972,0 59.34,2.743 88.103,8.229c28.764,5.486 53.297,13.477 73.601,23.972l-44.958,106.623c-34.806,-19.082 -72.997,-28.624 -114.571,-28.624c-35.773,0 -53.66,6.202 -53.66,18.606c0,6.201 4.835,10.614 14.503,13.238c9.668,2.624 24.896,5.128 45.683,7.514c32.389,3.816 59.824,8.825 82.303,15.027c22.479,6.202 42.299,17.89 59.46,35.064c17.162,17.174 25.743,41.742 25.743,73.705c-0,24.33 -7.735,46.513 -23.205,66.55c-15.469,20.036 -38.673,36.018 -69.612,47.944c-30.939,11.927 -68.404,17.89 -112.396,17.89Zm-1179.79,-405.738c69.613,0 122.789,15.385 159.529,46.155c36.74,30.771 55.11,78.119 55.11,142.044l0,210.383l-152.277,-0l-0,-51.522c-18.854,39.118 -56.319,58.678 -112.396,58.678c-31.422,-0 -58.131,-5.367 -80.127,-16.101c-21.996,-10.734 -38.674,-25.284 -50.034,-43.651c-11.36,-18.366 -17.041,-38.999 -17.041,-61.898c0,-38.642 14.986,-67.981 44.959,-88.017c29.972,-20.037 75.413,-30.055 136.324,-30.055l65.987,0c-5.317,-30.531 -30.214,-45.797 -74.688,-45.797c-17.887,-0 -36.015,2.743 -54.385,8.229c-18.37,5.486 -34.081,13 -47.134,22.541l-52.209,-106.623c22.721,-13.834 50.155,-24.687 82.302,-32.559c32.148,-7.871 64.174,-11.807 96.08,-11.807Zm-518.469,28.624l-148.652,-0l0,-130.953l468.435,0l0,130.953l-148.652,-0l0,369.958l-171.131,-0l0,-369.958Zm804.171,-161.008l163.88,0l-0,530.966l-163.88,-0l0,-530.966Zm426.377,410.747l-26.104,27.908l-0,92.311l-163.88,-0l-0,-530.966l163.88,0l-0,253.318l113.845,-113.778l193.611,-0l-163.88,169.594l176.932,221.832l-197.961,-0l-96.443,-120.219Zm-712.804,30.055c11.602,0 21.996,-3.101 31.181,-9.303c9.185,-6.201 15.953,-15.504 20.303,-27.908l0,-27.192l-40.607,0c-33.356,0 -50.034,10.973 -50.034,32.917c-0,9.064 3.505,16.578 10.514,22.541c7.01,5.963 16.558,8.945 28.643,8.945Z" style="fill:#ff2d00;fill-rule:nonzero;"/></g></g></svg>