<?xml version="1.0" encoding="UTF-8" standalone="no"?><!DOCTYPE svg PUBLIC "-//W3C//DTD SVG 1.1//EN" "http://www.w3.org/Graphics/SVG/1.1/DTD/svg11.dtd"><svg width="100%" height="100%" viewBox="0 0 2426 1474" version="1.1" xmlns="http://www.w3.org/2000/svg" xmlns:xlink="http://www.w3.org/1999/xlink" xml:space="preserve" xmlns:serif="http://www.serif.com/" style="fill-rule:evenodd;clip-rule:evenodd;stroke-linejoin:round;stroke-miterlimit:2;"><g><path d="M2425.56,528.743l-0,-528.743l-2425.56,0l0,528.743l301.838,-0l-0,772.479l1792.66,-0l-0,-772.479l331.059,-0Z" style="fill:#001cff;"/><g transform="matrix(1,0,0,0.979996,4.54747e-13,-124.367)"><text x="27.459px" y="1630.85px" style="font-family:'Minecraft';font-weight:500;font-size:115.114px;">T<tspan x="116.96px 220.851px 310.352px 392.659px 474.965px 564.467px 668.357px 757.858px 804.192px 893.693px 983.195px 1072.7px 1176.59px 1222.92px 1326.81px 1409.12px 1455.45px 1544.95px 1634.45px 1731.15px 1820.65px 1910.15px 2014.04px 2096.35px 2200.24px 2296.94px " y="1630.85px 1630.85px 1630.85px 1630.85px 1630.85px 1630.85px 1630.85px 1630.85px 1630.85px 1630.85px 1630.85px 1630.85px 1630.85px 1630.85px 1630.85px 1630.85px 1630.85px 1630.85px 1630.85px 1630.85px 1630.85px 1630.85px 1630.85px 1630.85px 1630.85px 1630.85px ">REASURY EXPO OF TECHNOLOGY</tspan></text></g><g><path d="M1634.67,466.07l-356.702,0l-79.799,119.48c0,0 -81.862,-119.48 -81.862,-119.48l-163.963,0l52.635,73.868l71.581,0c0,0 122.404,178.651 122.404,178.651l119.318,-178.651c-0,0 180.642,0 180.642,0c0,0 -181.581,249.246 -181.581,249.246l314.722,435.774c-0,0 364.135,0 364.135,0l-0,-791.831c-0,0 318.163,0 318.163,0l0,-356.77l-997.856,-0l-0,356.77l318.163,0l0,32.943Zm35.965,685.02l250.711,0l0,-791.831c0,-0 318.164,-0 318.164,0c-0,0 -0,-209.034 -0,-209.034c-0,-0 -848.15,-0 -848.15,-0c0,-0 0,209.034 0,209.034l318.164,-0l-0,551.724l-74.854,-0l0,-430.831l-225.273,309.219l261.238,361.719Z" style="fill:#f5f751;"/><path d="M761.669,1132.81l356.262,0l81.033,-126.725c-0,0 83.092,126.725 83.092,126.725l164.445,0l-53.349,-73.868l-70.374,0c0,0 -124.606,-190.039 -124.606,-190.039l-121.517,190.039c-0,0 -193.167,0 -193.167,0c0,0 190.168,-261.84 190.168,-261.84l-311.987,-437.845c0,-0 -74.853,-0 -74.853,-0l-0,791.831c-0,0 -211.822,0 -211.822,0c-0.001,0 -0.001,-791.831 -0.001,-791.831l-318.163,-0c-0,-0 -0,-209.034 -0,-209.034c-0,-0 848.15,-0 848.15,-0l-0,282.902l74.853,0l-0,-356.77l-997.856,-0l-0,356.77l318.163,0c0,0 0,791.831 0,791.831l361.529,0l0,-92.146Zm0,-650.004l0,617.065l220.19,-303.177l-220.19,-313.888Z" style="fill:#fff;"/></g></g></svg>